<?xml version="1.0" encoding="UTF-8"?><svg xmlns="http://www.w3.org/2000/svg" xmlns:xlink="http://www.w3.org/1999/xlink" fill-opacity="1" color-rendering="auto" color-interpolation="auto" text-rendering="auto" stroke="black" stroke-linecap="square" width="181" stroke-miterlimit="10" shape-rendering="auto" stroke-opacity="1" fill="black" stroke-dasharray="none" font-weight="normal" stroke-width="1" height="150" font-family="'Dialog'" font-style="normal" stroke-linejoin="miter" font-size="12px" stroke-dashoffset="0" image-rendering="auto">
  <!--Generated by ySVG 2.5-->
  <defs id="genericDefs"/>
  <g>
    <defs id="defs1">
      <clipPath clipPathUnits="userSpaceOnUse" id="clipPath1">
        <path d="M0 0 L181 0 L181 150 L0 150 L0 0 Z"/>
      </clipPath>
      <clipPath clipPathUnits="userSpaceOnUse" id="clipPath2">
        <path d="M249 165 L430 165 L430 315 L249 315 L249 165 Z"/>
      </clipPath>
    </defs>
    <g fill="white" text-rendering="geometricPrecision" shape-rendering="geometricPrecision" transform="translate(-249,-165)" stroke="white">
      <rect x="249" width="181" height="150" y="165" clip-path="url(#clipPath2)" stroke="none"/>
    </g>
    <g fill="gray" text-rendering="geometricPrecision" shape-rendering="geometricPrecision" stroke="gray">
      <line y2="-44" fill="none" x1="-39" clip-path="url(#clipPath1)" x2="-39" y1="-46"/>
      <line y2="-45" fill="none" x1="-40" clip-path="url(#clipPath1)" x2="-38" y1="-45"/>
      <line y2="-14" fill="none" x1="-39" clip-path="url(#clipPath1)" x2="-39" y1="-16"/>
      <line y2="-15" fill="none" x1="-40" clip-path="url(#clipPath1)" x2="-38" y1="-15"/>
      <line y2="16" fill="none" x1="-39" clip-path="url(#clipPath1)" x2="-39" y1="14"/>
      <line y2="15" fill="none" x1="-40" clip-path="url(#clipPath1)" x2="-38" y1="15"/>
      <line y2="46" fill="none" x1="-39" clip-path="url(#clipPath1)" x2="-39" y1="44"/>
      <line y2="45" fill="none" x1="-40" clip-path="url(#clipPath1)" x2="-38" y1="45"/>
      <line y2="76" fill="none" x1="-39" clip-path="url(#clipPath1)" x2="-39" y1="74"/>
      <line y2="75" fill="none" x1="-40" clip-path="url(#clipPath1)" x2="-38" y1="75"/>
      <line y2="106" fill="none" x1="-39" clip-path="url(#clipPath1)" x2="-39" y1="104"/>
      <line y2="105" fill="none" x1="-40" clip-path="url(#clipPath1)" x2="-38" y1="105"/>
      <line y2="136" fill="none" x1="-39" clip-path="url(#clipPath1)" x2="-39" y1="134"/>
      <line y2="135" fill="none" x1="-40" clip-path="url(#clipPath1)" x2="-38" y1="135"/>
      <line y2="166" fill="none" x1="-39" clip-path="url(#clipPath1)" x2="-39" y1="164"/>
      <line y2="165" fill="none" x1="-40" clip-path="url(#clipPath1)" x2="-38" y1="165"/>
      <line y2="-44" fill="none" x1="-9" clip-path="url(#clipPath1)" x2="-9" y1="-46"/>
      <line y2="-45" fill="none" x1="-10" clip-path="url(#clipPath1)" x2="-8" y1="-45"/>
      <line y2="-14" fill="none" x1="-9" clip-path="url(#clipPath1)" x2="-9" y1="-16"/>
      <line y2="-15" fill="none" x1="-10" clip-path="url(#clipPath1)" x2="-8" y1="-15"/>
      <line y2="16" fill="none" x1="-9" clip-path="url(#clipPath1)" x2="-9" y1="14"/>
      <line y2="15" fill="none" x1="-10" clip-path="url(#clipPath1)" x2="-8" y1="15"/>
      <line y2="46" fill="none" x1="-9" clip-path="url(#clipPath1)" x2="-9" y1="44"/>
      <line y2="45" fill="none" x1="-10" clip-path="url(#clipPath1)" x2="-8" y1="45"/>
      <line y2="76" fill="none" x1="-9" clip-path="url(#clipPath1)" x2="-9" y1="74"/>
      <line y2="75" fill="none" x1="-10" clip-path="url(#clipPath1)" x2="-8" y1="75"/>
      <line y2="106" fill="none" x1="-9" clip-path="url(#clipPath1)" x2="-9" y1="104"/>
      <line y2="105" fill="none" x1="-10" clip-path="url(#clipPath1)" x2="-8" y1="105"/>
      <line y2="136" fill="none" x1="-9" clip-path="url(#clipPath1)" x2="-9" y1="134"/>
      <line y2="135" fill="none" x1="-10" clip-path="url(#clipPath1)" x2="-8" y1="135"/>
      <line y2="166" fill="none" x1="-9" clip-path="url(#clipPath1)" x2="-9" y1="164"/>
      <line y2="165" fill="none" x1="-10" clip-path="url(#clipPath1)" x2="-8" y1="165"/>
      <line y2="-44" fill="none" x1="21" clip-path="url(#clipPath1)" x2="21" y1="-46"/>
      <line y2="-45" fill="none" x1="20" clip-path="url(#clipPath1)" x2="22" y1="-45"/>
      <line y2="-14" fill="none" x1="21" clip-path="url(#clipPath1)" x2="21" y1="-16"/>
      <line y2="-15" fill="none" x1="20" clip-path="url(#clipPath1)" x2="22" y1="-15"/>
      <line y2="16" fill="none" x1="21" clip-path="url(#clipPath1)" x2="21" y1="14"/>
      <line y2="15" fill="none" x1="20" clip-path="url(#clipPath1)" x2="22" y1="15"/>
      <line y2="46" fill="none" x1="21" clip-path="url(#clipPath1)" x2="21" y1="44"/>
      <line y2="45" fill="none" x1="20" clip-path="url(#clipPath1)" x2="22" y1="45"/>
      <line y2="76" fill="none" x1="21" clip-path="url(#clipPath1)" x2="21" y1="74"/>
      <line y2="75" fill="none" x1="20" clip-path="url(#clipPath1)" x2="22" y1="75"/>
      <line y2="106" fill="none" x1="21" clip-path="url(#clipPath1)" x2="21" y1="104"/>
      <line y2="105" fill="none" x1="20" clip-path="url(#clipPath1)" x2="22" y1="105"/>
      <line y2="136" fill="none" x1="21" clip-path="url(#clipPath1)" x2="21" y1="134"/>
      <line y2="135" fill="none" x1="20" clip-path="url(#clipPath1)" x2="22" y1="135"/>
      <line y2="166" fill="none" x1="21" clip-path="url(#clipPath1)" x2="21" y1="164"/>
      <line y2="165" fill="none" x1="20" clip-path="url(#clipPath1)" x2="22" y1="165"/>
      <line y2="-44" fill="none" x1="51" clip-path="url(#clipPath1)" x2="51" y1="-46"/>
      <line y2="-45" fill="none" x1="50" clip-path="url(#clipPath1)" x2="52" y1="-45"/>
      <line y2="-14" fill="none" x1="51" clip-path="url(#clipPath1)" x2="51" y1="-16"/>
      <line y2="-15" fill="none" x1="50" clip-path="url(#clipPath1)" x2="52" y1="-15"/>
      <line y2="16" fill="none" x1="51" clip-path="url(#clipPath1)" x2="51" y1="14"/>
      <line y2="15" fill="none" x1="50" clip-path="url(#clipPath1)" x2="52" y1="15"/>
      <line y2="46" fill="none" x1="51" clip-path="url(#clipPath1)" x2="51" y1="44"/>
      <line y2="45" fill="none" x1="50" clip-path="url(#clipPath1)" x2="52" y1="45"/>
      <line y2="76" fill="none" x1="51" clip-path="url(#clipPath1)" x2="51" y1="74"/>
      <line y2="75" fill="none" x1="50" clip-path="url(#clipPath1)" x2="52" y1="75"/>
      <line y2="106" fill="none" x1="51" clip-path="url(#clipPath1)" x2="51" y1="104"/>
      <line y2="105" fill="none" x1="50" clip-path="url(#clipPath1)" x2="52" y1="105"/>
      <line y2="136" fill="none" x1="51" clip-path="url(#clipPath1)" x2="51" y1="134"/>
      <line y2="135" fill="none" x1="50" clip-path="url(#clipPath1)" x2="52" y1="135"/>
      <line y2="166" fill="none" x1="51" clip-path="url(#clipPath1)" x2="51" y1="164"/>
      <line y2="165" fill="none" x1="50" clip-path="url(#clipPath1)" x2="52" y1="165"/>
      <line y2="-44" fill="none" x1="81" clip-path="url(#clipPath1)" x2="81" y1="-46"/>
      <line y2="-45" fill="none" x1="80" clip-path="url(#clipPath1)" x2="82" y1="-45"/>
      <line y2="-14" fill="none" x1="81" clip-path="url(#clipPath1)" x2="81" y1="-16"/>
      <line y2="-15" fill="none" x1="80" clip-path="url(#clipPath1)" x2="82" y1="-15"/>
      <line y2="16" fill="none" x1="81" clip-path="url(#clipPath1)" x2="81" y1="14"/>
      <line y2="15" fill="none" x1="80" clip-path="url(#clipPath1)" x2="82" y1="15"/>
      <line y2="46" fill="none" x1="81" clip-path="url(#clipPath1)" x2="81" y1="44"/>
      <line y2="45" fill="none" x1="80" clip-path="url(#clipPath1)" x2="82" y1="45"/>
      <line y2="76" fill="none" x1="81" clip-path="url(#clipPath1)" x2="81" y1="74"/>
      <line y2="75" fill="none" x1="80" clip-path="url(#clipPath1)" x2="82" y1="75"/>
      <line y2="106" fill="none" x1="81" clip-path="url(#clipPath1)" x2="81" y1="104"/>
      <line y2="105" fill="none" x1="80" clip-path="url(#clipPath1)" x2="82" y1="105"/>
      <line y2="136" fill="none" x1="81" clip-path="url(#clipPath1)" x2="81" y1="134"/>
      <line y2="135" fill="none" x1="80" clip-path="url(#clipPath1)" x2="82" y1="135"/>
      <line y2="166" fill="none" x1="81" clip-path="url(#clipPath1)" x2="81" y1="164"/>
      <line y2="165" fill="none" x1="80" clip-path="url(#clipPath1)" x2="82" y1="165"/>
      <line y2="-44" fill="none" x1="111" clip-path="url(#clipPath1)" x2="111" y1="-46"/>
      <line y2="-45" fill="none" x1="110" clip-path="url(#clipPath1)" x2="112" y1="-45"/>
      <line y2="-14" fill="none" x1="111" clip-path="url(#clipPath1)" x2="111" y1="-16"/>
      <line y2="-15" fill="none" x1="110" clip-path="url(#clipPath1)" x2="112" y1="-15"/>
      <line y2="16" fill="none" x1="111" clip-path="url(#clipPath1)" x2="111" y1="14"/>
      <line y2="15" fill="none" x1="110" clip-path="url(#clipPath1)" x2="112" y1="15"/>
      <line y2="46" fill="none" x1="111" clip-path="url(#clipPath1)" x2="111" y1="44"/>
      <line y2="45" fill="none" x1="110" clip-path="url(#clipPath1)" x2="112" y1="45"/>
      <line y2="76" fill="none" x1="111" clip-path="url(#clipPath1)" x2="111" y1="74"/>
      <line y2="75" fill="none" x1="110" clip-path="url(#clipPath1)" x2="112" y1="75"/>
      <line y2="106" fill="none" x1="111" clip-path="url(#clipPath1)" x2="111" y1="104"/>
      <line y2="105" fill="none" x1="110" clip-path="url(#clipPath1)" x2="112" y1="105"/>
      <line y2="136" fill="none" x1="111" clip-path="url(#clipPath1)" x2="111" y1="134"/>
      <line y2="135" fill="none" x1="110" clip-path="url(#clipPath1)" x2="112" y1="135"/>
      <line y2="166" fill="none" x1="111" clip-path="url(#clipPath1)" x2="111" y1="164"/>
      <line y2="165" fill="none" x1="110" clip-path="url(#clipPath1)" x2="112" y1="165"/>
      <line y2="-44" fill="none" x1="141" clip-path="url(#clipPath1)" x2="141" y1="-46"/>
      <line y2="-45" fill="none" x1="140" clip-path="url(#clipPath1)" x2="142" y1="-45"/>
      <line y2="-14" fill="none" x1="141" clip-path="url(#clipPath1)" x2="141" y1="-16"/>
      <line y2="-15" fill="none" x1="140" clip-path="url(#clipPath1)" x2="142" y1="-15"/>
      <line y2="16" fill="none" x1="141" clip-path="url(#clipPath1)" x2="141" y1="14"/>
      <line y2="15" fill="none" x1="140" clip-path="url(#clipPath1)" x2="142" y1="15"/>
      <line y2="46" fill="none" x1="141" clip-path="url(#clipPath1)" x2="141" y1="44"/>
      <line y2="45" fill="none" x1="140" clip-path="url(#clipPath1)" x2="142" y1="45"/>
      <line y2="76" fill="none" x1="141" clip-path="url(#clipPath1)" x2="141" y1="74"/>
      <line y2="75" fill="none" x1="140" clip-path="url(#clipPath1)" x2="142" y1="75"/>
      <line y2="106" fill="none" x1="141" clip-path="url(#clipPath1)" x2="141" y1="104"/>
      <line y2="105" fill="none" x1="140" clip-path="url(#clipPath1)" x2="142" y1="105"/>
      <line y2="136" fill="none" x1="141" clip-path="url(#clipPath1)" x2="141" y1="134"/>
      <line y2="135" fill="none" x1="140" clip-path="url(#clipPath1)" x2="142" y1="135"/>
      <line y2="166" fill="none" x1="141" clip-path="url(#clipPath1)" x2="141" y1="164"/>
      <line y2="165" fill="none" x1="140" clip-path="url(#clipPath1)" x2="142" y1="165"/>
      <line y2="-44" fill="none" x1="171" clip-path="url(#clipPath1)" x2="171" y1="-46"/>
      <line y2="-45" fill="none" x1="170" clip-path="url(#clipPath1)" x2="172" y1="-45"/>
      <line y2="-14" fill="none" x1="171" clip-path="url(#clipPath1)" x2="171" y1="-16"/>
      <line y2="-15" fill="none" x1="170" clip-path="url(#clipPath1)" x2="172" y1="-15"/>
      <line y2="16" fill="none" x1="171" clip-path="url(#clipPath1)" x2="171" y1="14"/>
      <line y2="15" fill="none" x1="170" clip-path="url(#clipPath1)" x2="172" y1="15"/>
      <line y2="46" fill="none" x1="171" clip-path="url(#clipPath1)" x2="171" y1="44"/>
      <line y2="45" fill="none" x1="170" clip-path="url(#clipPath1)" x2="172" y1="45"/>
      <line y2="76" fill="none" x1="171" clip-path="url(#clipPath1)" x2="171" y1="74"/>
      <line y2="75" fill="none" x1="170" clip-path="url(#clipPath1)" x2="172" y1="75"/>
      <line y2="106" fill="none" x1="171" clip-path="url(#clipPath1)" x2="171" y1="104"/>
      <line y2="105" fill="none" x1="170" clip-path="url(#clipPath1)" x2="172" y1="105"/>
      <line y2="136" fill="none" x1="171" clip-path="url(#clipPath1)" x2="171" y1="134"/>
      <line y2="135" fill="none" x1="170" clip-path="url(#clipPath1)" x2="172" y1="135"/>
      <line y2="166" fill="none" x1="171" clip-path="url(#clipPath1)" x2="171" y1="164"/>
      <line y2="165" fill="none" x1="170" clip-path="url(#clipPath1)" x2="172" y1="165"/>
      <line y2="-44" fill="none" x1="201" clip-path="url(#clipPath1)" x2="201" y1="-46"/>
      <line y2="-45" fill="none" x1="200" clip-path="url(#clipPath1)" x2="202" y1="-45"/>
      <line y2="-14" fill="none" x1="201" clip-path="url(#clipPath1)" x2="201" y1="-16"/>
      <line y2="-15" fill="none" x1="200" clip-path="url(#clipPath1)" x2="202" y1="-15"/>
      <line y2="16" fill="none" x1="201" clip-path="url(#clipPath1)" x2="201" y1="14"/>
      <line y2="15" fill="none" x1="200" clip-path="url(#clipPath1)" x2="202" y1="15"/>
      <line y2="46" fill="none" x1="201" clip-path="url(#clipPath1)" x2="201" y1="44"/>
      <line y2="45" fill="none" x1="200" clip-path="url(#clipPath1)" x2="202" y1="45"/>
      <line y2="76" fill="none" x1="201" clip-path="url(#clipPath1)" x2="201" y1="74"/>
      <line y2="75" fill="none" x1="200" clip-path="url(#clipPath1)" x2="202" y1="75"/>
      <line y2="106" fill="none" x1="201" clip-path="url(#clipPath1)" x2="201" y1="104"/>
      <line y2="105" fill="none" x1="200" clip-path="url(#clipPath1)" x2="202" y1="105"/>
      <line y2="136" fill="none" x1="201" clip-path="url(#clipPath1)" x2="201" y1="134"/>
      <line y2="135" fill="none" x1="200" clip-path="url(#clipPath1)" x2="202" y1="135"/>
      <line y2="166" fill="none" x1="201" clip-path="url(#clipPath1)" x2="201" y1="164"/>
      <line y2="165" fill="none" x1="200" clip-path="url(#clipPath1)" x2="202" y1="165"/>
    </g>
    <g fill="white" text-rendering="geometricPrecision" shape-rendering="geometricPrecision" transform="matrix(1,0,0,1,-249,-165)" stroke="white">
      <rect x="294.168" width="30" height="30" y="180" clip-path="url(#clipPath2)" stroke="none"/>
    </g>
    <g text-rendering="geometricPrecision" stroke-miterlimit="1.45" shape-rendering="geometricPrecision" transform="matrix(1,0,0,1,-249,-165)" stroke-linecap="butt">
      <rect fill="none" x="294.168" width="30" height="30" y="180" clip-path="url(#clipPath2)"/>
      <text x="305.3506" xml:space="preserve" y="199.1543" clip-path="url(#clipPath2)" font-family="sans-serif" stroke="none">1</text>
    </g>
    <g fill="white" text-rendering="geometricPrecision" shape-rendering="geometricPrecision" transform="matrix(1,0,0,1,-249,-165)" stroke="white">
      <rect x="324.168" width="30" height="30" y="180" clip-path="url(#clipPath2)" stroke="none"/>
    </g>
    <g text-rendering="geometricPrecision" stroke-miterlimit="1.45" shape-rendering="geometricPrecision" transform="matrix(1,0,0,1,-249,-165)" stroke-linecap="butt">
      <rect fill="none" x="324.168" width="30" height="30" y="180" clip-path="url(#clipPath2)"/>
      <text x="335.3506" xml:space="preserve" y="199.1543" clip-path="url(#clipPath2)" font-family="sans-serif" stroke="none">2</text>
    </g>
    <g fill="white" text-rendering="geometricPrecision" shape-rendering="geometricPrecision" transform="matrix(1,0,0,1,-249,-165)" stroke="white">
      <rect x="354.168" width="30" height="30" y="210" clip-path="url(#clipPath2)" stroke="none"/>
    </g>
    <g text-rendering="geometricPrecision" stroke-miterlimit="1.45" shape-rendering="geometricPrecision" transform="matrix(1,0,0,1,-249,-165)" stroke-linecap="butt">
      <rect fill="none" x="354.168" width="30" height="30" y="210" clip-path="url(#clipPath2)"/>
      <text x="365.3506" xml:space="preserve" y="229.1543" clip-path="url(#clipPath2)" font-family="sans-serif" stroke="none">3</text>
    </g>
    <g fill="rgb(153,153,153)" text-rendering="geometricPrecision" shape-rendering="geometricPrecision" transform="matrix(1,0,0,1,-249,-165)" stroke="rgb(153,153,153)">
      <rect x="294.168" width="30" height="30" y="270" clip-path="url(#clipPath2)" stroke="none"/>
    </g>
    <g text-rendering="geometricPrecision" stroke-miterlimit="1.45" shape-rendering="geometricPrecision" transform="matrix(1,0,0,1,-249,-165)" stroke-linecap="butt">
      <rect fill="none" x="294.168" width="30" height="30" y="270" clip-path="url(#clipPath2)"/>
    </g>
    <g fill="white" text-rendering="geometricPrecision" shape-rendering="geometricPrecision" transform="matrix(1,0,0,1,-249,-165)" stroke="white">
      <rect x="264.168" width="30" height="30" y="180" clip-path="url(#clipPath2)" stroke="none"/>
    </g>
    <g text-rendering="geometricPrecision" stroke-miterlimit="1.45" shape-rendering="geometricPrecision" transform="matrix(1,0,0,1,-249,-165)" stroke-linecap="butt">
      <rect fill="none" x="264.168" width="30" height="30" y="180" clip-path="url(#clipPath2)"/>
    </g>
    <g fill="white" text-rendering="geometricPrecision" shape-rendering="geometricPrecision" transform="matrix(1,0,0,1,-249,-165)" stroke="white">
      <rect x="354.168" width="30" height="30" y="180" clip-path="url(#clipPath2)" stroke="none"/>
    </g>
    <g text-rendering="geometricPrecision" stroke-miterlimit="1.45" shape-rendering="geometricPrecision" transform="matrix(1,0,0,1,-249,-165)" stroke-linecap="butt">
      <rect fill="none" x="354.168" width="30" height="30" y="180" clip-path="url(#clipPath2)"/>
      <text x="365.3506" xml:space="preserve" y="199.1543" clip-path="url(#clipPath2)" font-family="sans-serif" stroke="none">3</text>
    </g>
    <g fill="white" text-rendering="geometricPrecision" shape-rendering="geometricPrecision" transform="matrix(1,0,0,1,-249,-165)" stroke="white">
      <rect x="384.168" width="30" height="30" y="180" clip-path="url(#clipPath2)" stroke="none"/>
    </g>
    <g text-rendering="geometricPrecision" stroke-miterlimit="1.45" shape-rendering="geometricPrecision" transform="matrix(1,0,0,1,-249,-165)" stroke-linecap="butt">
      <rect fill="none" x="384.168" width="30" height="30" y="180" clip-path="url(#clipPath2)"/>
    </g>
    <g fill="white" text-rendering="geometricPrecision" shape-rendering="geometricPrecision" transform="matrix(1,0,0,1,-249,-165)" stroke="white">
      <rect x="264.168" width="30" height="30" y="210" clip-path="url(#clipPath2)" stroke="none"/>
    </g>
    <g text-rendering="geometricPrecision" stroke-miterlimit="1.45" shape-rendering="geometricPrecision" transform="matrix(1,0,0,1,-249,-165)" stroke-linecap="butt">
      <rect fill="none" x="264.168" width="30" height="30" y="210" clip-path="url(#clipPath2)"/>
    </g>
    <g fill="white" text-rendering="geometricPrecision" shape-rendering="geometricPrecision" transform="matrix(1,0,0,1,-249,-165)" stroke="white">
      <rect x="294.168" width="30" height="30" y="210" clip-path="url(#clipPath2)" stroke="none"/>
    </g>
    <g text-rendering="geometricPrecision" stroke-miterlimit="1.45" shape-rendering="geometricPrecision" transform="matrix(1,0,0,1,-249,-165)" stroke-linecap="butt">
      <rect fill="none" x="294.168" width="30" height="30" y="210" clip-path="url(#clipPath2)"/>
      <text x="305.3506" xml:space="preserve" y="229.1543" clip-path="url(#clipPath2)" font-family="sans-serif" stroke="none">2</text>
    </g>
    <g fill="white" text-rendering="geometricPrecision" shape-rendering="geometricPrecision" transform="matrix(1,0,0,1,-249,-165)" stroke="white">
      <rect x="384.168" width="30" height="30" y="210" clip-path="url(#clipPath2)" stroke="none"/>
    </g>
    <g text-rendering="geometricPrecision" stroke-miterlimit="1.45" shape-rendering="geometricPrecision" transform="matrix(1,0,0,1,-249,-165)" stroke-linecap="butt">
      <rect fill="none" x="384.168" width="30" height="30" y="210" clip-path="url(#clipPath2)"/>
    </g>
    <g fill="white" text-rendering="geometricPrecision" shape-rendering="geometricPrecision" transform="matrix(1,0,0,1,-249,-165)" stroke="white">
      <rect x="294.168" width="30" height="30" y="240" clip-path="url(#clipPath2)" stroke="none"/>
    </g>
    <g text-rendering="geometricPrecision" stroke-miterlimit="1.45" shape-rendering="geometricPrecision" transform="matrix(1,0,0,1,-249,-165)" stroke-linecap="butt">
      <rect fill="none" x="294.168" width="30" height="30" y="240" clip-path="url(#clipPath2)"/>
      <text x="305.3506" xml:space="preserve" y="259.1543" clip-path="url(#clipPath2)" font-family="sans-serif" stroke="none">3</text>
    </g>
    <g fill="white" text-rendering="geometricPrecision" shape-rendering="geometricPrecision" transform="matrix(1,0,0,1,-249,-165)" stroke="white">
      <rect x="324.168" width="30" height="30" y="240" clip-path="url(#clipPath2)" stroke="none"/>
    </g>
    <g text-rendering="geometricPrecision" stroke-miterlimit="1.45" shape-rendering="geometricPrecision" transform="matrix(1,0,0,1,-249,-165)" stroke-linecap="butt">
      <rect fill="none" x="324.168" width="30" height="30" y="240" clip-path="url(#clipPath2)"/>
      <text x="335.3506" xml:space="preserve" y="259.1543" clip-path="url(#clipPath2)" font-family="sans-serif" stroke="none">3</text>
    </g>
    <g fill="white" text-rendering="geometricPrecision" shape-rendering="geometricPrecision" transform="matrix(1,0,0,1,-249,-165)" stroke="white">
      <rect x="384.168" width="30" height="30" y="240" clip-path="url(#clipPath2)" stroke="none"/>
    </g>
    <g text-rendering="geometricPrecision" stroke-miterlimit="1.45" shape-rendering="geometricPrecision" transform="matrix(1,0,0,1,-249,-165)" stroke-linecap="butt">
      <rect fill="none" x="384.168" width="30" height="30" y="240" clip-path="url(#clipPath2)"/>
    </g>
    <g fill="rgb(153,153,153)" text-rendering="geometricPrecision" shape-rendering="geometricPrecision" transform="matrix(1,0,0,1,-249,-165)" stroke="rgb(153,153,153)">
      <rect x="294.168" width="30" height="30" y="270" clip-path="url(#clipPath2)" stroke="none"/>
    </g>
    <g text-rendering="geometricPrecision" stroke-miterlimit="1.45" shape-rendering="geometricPrecision" transform="matrix(1,0,0,1,-249,-165)" stroke-linecap="butt">
      <rect fill="none" x="294.168" width="30" height="30" y="270" clip-path="url(#clipPath2)"/>
    </g>
    <g fill="rgb(153,153,153)" text-rendering="geometricPrecision" shape-rendering="geometricPrecision" transform="matrix(1,0,0,1,-249,-165)" stroke="rgb(153,153,153)">
      <rect x="324.168" width="30" height="30" y="270" clip-path="url(#clipPath2)" stroke="none"/>
    </g>
    <g text-rendering="geometricPrecision" stroke-miterlimit="1.45" shape-rendering="geometricPrecision" transform="matrix(1,0,0,1,-249,-165)" stroke-linecap="butt">
      <rect fill="none" x="324.168" width="30" height="30" y="270" clip-path="url(#clipPath2)"/>
    </g>
    <g fill="rgb(153,153,153)" text-rendering="geometricPrecision" shape-rendering="geometricPrecision" transform="matrix(1,0,0,1,-249,-165)" stroke="rgb(153,153,153)">
      <rect x="354.168" width="30" height="30" y="270" clip-path="url(#clipPath2)" stroke="none"/>
    </g>
    <g text-rendering="geometricPrecision" stroke-miterlimit="1.45" shape-rendering="geometricPrecision" transform="matrix(1,0,0,1,-249,-165)" stroke-linecap="butt">
      <rect fill="none" x="354.168" width="30" height="30" y="270" clip-path="url(#clipPath2)"/>
      <rect stroke-linecap="square" x="384.168" y="270" clip-path="url(#clipPath2)" width="30" height="30" stroke="none" stroke-miterlimit="10"/>
      <rect fill="none" x="384.168" width="30" height="30" y="270" clip-path="url(#clipPath2)"/>
    </g>
    <g fill="rgb(153,153,153)" text-rendering="geometricPrecision" shape-rendering="geometricPrecision" transform="matrix(1,0,0,1,-249,-165)" stroke="rgb(153,153,153)">
      <rect x="384.168" width="30" height="30" y="180" clip-path="url(#clipPath2)" stroke="none"/>
    </g>
    <g text-rendering="geometricPrecision" stroke-miterlimit="1.45" shape-rendering="geometricPrecision" transform="matrix(1,0,0,1,-249,-165)" stroke-linecap="butt">
      <rect fill="none" x="384.168" width="30" height="30" y="180" clip-path="url(#clipPath2)"/>
    </g>
    <g fill="rgb(153,153,153)" text-rendering="geometricPrecision" shape-rendering="geometricPrecision" transform="matrix(1,0,0,1,-249,-165)" stroke="rgb(153,153,153)">
      <rect x="384.168" width="30" height="30" y="210" clip-path="url(#clipPath2)" stroke="none"/>
    </g>
    <g text-rendering="geometricPrecision" stroke-miterlimit="1.45" shape-rendering="geometricPrecision" transform="matrix(1,0,0,1,-249,-165)" stroke-linecap="butt">
      <rect fill="none" x="384.168" width="30" height="30" y="210" clip-path="url(#clipPath2)"/>
    </g>
    <g fill="rgb(153,153,153)" text-rendering="geometricPrecision" shape-rendering="geometricPrecision" transform="matrix(1,0,0,1,-249,-165)" stroke="rgb(153,153,153)">
      <rect x="384.168" width="30" height="30" y="270" clip-path="url(#clipPath2)" stroke="none"/>
    </g>
    <g text-rendering="geometricPrecision" stroke-miterlimit="1.45" shape-rendering="geometricPrecision" transform="matrix(1,0,0,1,-249,-165)" stroke-linecap="butt">
      <rect fill="none" x="384.168" width="30" height="30" y="270" clip-path="url(#clipPath2)"/>
    </g>
    <g fill="rgb(153,153,153)" text-rendering="geometricPrecision" shape-rendering="geometricPrecision" transform="matrix(1,0,0,1,-249,-165)" stroke="rgb(153,153,153)">
      <rect x="264.168" width="30" height="30" y="180" clip-path="url(#clipPath2)" stroke="none"/>
    </g>
    <g text-rendering="geometricPrecision" stroke-miterlimit="1.45" shape-rendering="geometricPrecision" transform="matrix(1,0,0,1,-249,-165)" stroke-linecap="butt">
      <rect fill="none" x="264.168" width="30" height="30" y="180" clip-path="url(#clipPath2)"/>
    </g>
    <g fill="white" text-rendering="geometricPrecision" shape-rendering="geometricPrecision" transform="matrix(1,0,0,1,-249,-165)" stroke="white">
      <rect x="264.168" width="30" height="30" y="240" clip-path="url(#clipPath2)" stroke="none"/>
    </g>
    <g text-rendering="geometricPrecision" stroke-miterlimit="1.45" shape-rendering="geometricPrecision" transform="matrix(1,0,0,1,-249,-165)" stroke-linecap="butt">
      <rect fill="none" x="264.168" width="30" height="30" y="240" clip-path="url(#clipPath2)"/>
    </g>
    <g fill="white" text-rendering="geometricPrecision" shape-rendering="geometricPrecision" transform="matrix(1,0,0,1,-249,-165)" stroke="white">
      <rect x="294.168" width="30" height="30" y="270" clip-path="url(#clipPath2)" stroke="none"/>
    </g>
    <g text-rendering="geometricPrecision" stroke-miterlimit="1.45" shape-rendering="geometricPrecision" transform="matrix(1,0,0,1,-249,-165)" stroke-linecap="butt">
      <rect fill="none" x="294.168" width="30" height="30" y="270" clip-path="url(#clipPath2)"/>
    </g>
    <g fill="white" text-rendering="geometricPrecision" shape-rendering="geometricPrecision" transform="matrix(1,0,0,1,-249,-165)" stroke="white">
      <rect x="264.168" width="30" height="30" y="270" clip-path="url(#clipPath2)" stroke="none"/>
    </g>
    <g text-rendering="geometricPrecision" stroke-miterlimit="1.45" shape-rendering="geometricPrecision" transform="matrix(1,0,0,1,-249,-165)" stroke-linecap="butt">
      <rect fill="none" x="264.168" width="30" height="30" y="270" clip-path="url(#clipPath2)"/>
    </g>
    <g fill="rgb(153,153,153)" text-rendering="geometricPrecision" shape-rendering="geometricPrecision" transform="matrix(1,0,0,1,-249,-165)" stroke="rgb(153,153,153)">
      <rect x="294.168" width="30" height="30" y="270" clip-path="url(#clipPath2)" stroke="none"/>
    </g>
    <g text-rendering="geometricPrecision" stroke-miterlimit="1.45" shape-rendering="geometricPrecision" transform="matrix(1,0,0,1,-249,-165)" stroke-linecap="butt">
      <rect fill="none" x="294.168" width="30" height="30" y="270" clip-path="url(#clipPath2)"/>
    </g>
    <g fill="white" text-rendering="geometricPrecision" shape-rendering="geometricPrecision" transform="matrix(1,0,0,1,-249,-165)" stroke="white">
      <rect x="324.168" width="30" height="30" y="210" clip-path="url(#clipPath2)" stroke="none"/>
    </g>
    <g text-rendering="geometricPrecision" stroke-miterlimit="1.45" shape-rendering="geometricPrecision" transform="matrix(1,0,0,1,-249,-165)" stroke-linecap="butt">
      <rect fill="none" x="324.168" width="30" height="30" y="210" clip-path="url(#clipPath2)"/>
      <text x="335.3506" xml:space="preserve" y="229.1543" clip-path="url(#clipPath2)" font-family="sans-serif" stroke="none">2</text>
    </g>
    <g fill="white" text-rendering="geometricPrecision" shape-rendering="geometricPrecision" transform="matrix(1,0,0,1,-249,-165)" stroke="white">
      <rect x="354.168" width="30" height="30" y="240" clip-path="url(#clipPath2)" stroke="none"/>
    </g>
    <g text-rendering="geometricPrecision" stroke-miterlimit="1.45" shape-rendering="geometricPrecision" transform="matrix(1,0,0,1,-249,-165)" stroke-linecap="butt">
      <rect fill="none" x="354.168" width="30" height="30" y="240" clip-path="url(#clipPath2)"/>
      <text x="365.3506" xml:space="preserve" y="259.1543" clip-path="url(#clipPath2)" font-family="sans-serif" stroke="none">3</text>
    </g>
    <g fill="rgb(153,204,0)" text-rendering="geometricPrecision" shape-rendering="geometricPrecision" transform="matrix(1,0,0,1,-249,-165)" stroke="rgb(153,204,0)">
      <rect x="294.168" width="30" height="2.5" y="234.7273" clip-path="url(#clipPath2)" stroke="none"/>
    </g>
    <g text-rendering="geometricPrecision" stroke-miterlimit="1.45" shape-rendering="geometricPrecision" transform="matrix(1,0,0,1,-249,-165)" stroke-linecap="butt">
      <rect fill="none" x="294.168" width="30" height="2.5" y="234.7273" clip-path="url(#clipPath2)"/>
    </g>
    <g fill="rgb(153,204,0)" text-rendering="geometricPrecision" shape-rendering="geometricPrecision" transform="matrix(1,0,0,1,-249,-165)" stroke="rgb(153,204,0)">
      <rect x="349.419" width="2.5" height="30" y="180" clip-path="url(#clipPath2)" stroke="none"/>
    </g>
    <g text-rendering="geometricPrecision" stroke-miterlimit="1.45" shape-rendering="geometricPrecision" transform="matrix(1,0,0,1,-249,-165)" stroke-linecap="butt">
      <rect fill="none" x="349.419" width="2.5" height="30" y="180" clip-path="url(#clipPath2)"/>
    </g>
    <g fill="rgb(153,204,0)" text-rendering="geometricPrecision" shape-rendering="geometricPrecision" transform="matrix(1,0,0,1,-249,-165)" stroke="rgb(153,204,0)">
      <rect x="349.419" width="2.5" height="30" y="210" clip-path="url(#clipPath2)" stroke="none"/>
    </g>
    <g text-rendering="geometricPrecision" stroke-miterlimit="1.45" shape-rendering="geometricPrecision" transform="matrix(1,0,0,1,-249,-165)" stroke-linecap="butt">
      <rect fill="none" x="349.419" width="2.5" height="30" y="210" clip-path="url(#clipPath2)"/>
    </g>
    <g fill="rgb(153,204,0)" text-rendering="geometricPrecision" shape-rendering="geometricPrecision" transform="matrix(1,0,0,1,-249,-165)" stroke="rgb(153,204,0)">
      <rect x="324.336" width="30" height="2.5" y="234.8214" clip-path="url(#clipPath2)" stroke="none"/>
    </g>
    <g text-rendering="geometricPrecision" stroke-miterlimit="1.45" shape-rendering="geometricPrecision" transform="matrix(1,0,0,1,-249,-165)" stroke-linecap="butt">
      <rect fill="none" x="324.336" width="30" height="2.5" y="234.8214" clip-path="url(#clipPath2)"/>
    </g>
    <g fill="rgb(51,204,204)" text-rendering="geometricPrecision" shape-rendering="geometricPrecision" transform="matrix(1,0,0,1,-249,-165)" stroke="rgb(51,204,204)">
      <rect x="293.9692" width="30" height="2.5" y="265.2802" clip-path="url(#clipPath2)" stroke="none"/>
    </g>
    <g text-rendering="geometricPrecision" stroke-miterlimit="1.45" shape-rendering="geometricPrecision" transform="matrix(1,0,0,1,-249,-165)" stroke-linecap="butt">
      <rect fill="none" x="293.9692" width="30" height="2.5" y="265.2802" clip-path="url(#clipPath2)"/>
    </g>
    <g fill="rgb(51,204,204)" text-rendering="geometricPrecision" shape-rendering="geometricPrecision" transform="matrix(1,0,0,1,-249,-165)" stroke="rgb(51,204,204)">
      <rect x="324.1372" width="30" height="2.5" y="265.3742" clip-path="url(#clipPath2)" stroke="none"/>
    </g>
    <g text-rendering="geometricPrecision" stroke-miterlimit="1.45" shape-rendering="geometricPrecision" transform="matrix(1,0,0,1,-249,-165)" stroke-linecap="butt">
      <rect fill="none" x="324.1372" width="30" height="2.5" y="265.3742" clip-path="url(#clipPath2)"/>
    </g>
    <g fill="rgb(51,204,204)" text-rendering="geometricPrecision" shape-rendering="geometricPrecision" transform="matrix(1,0,0,1,-249,-165)" stroke="rgb(51,204,204)">
      <rect x="354.168" width="30" height="2.5" y="265.5225" clip-path="url(#clipPath2)" stroke="none"/>
    </g>
    <g text-rendering="geometricPrecision" stroke-miterlimit="1.45" shape-rendering="geometricPrecision" transform="matrix(1,0,0,1,-249,-165)" stroke-linecap="butt">
      <rect fill="none" x="354.168" width="30" height="2.5" y="265.5225" clip-path="url(#clipPath2)"/>
    </g>
    <g fill="rgb(51,204,204)" text-rendering="geometricPrecision" shape-rendering="geometricPrecision" transform="matrix(1,0,0,1,-249,-165)" stroke="rgb(51,204,204)">
      <rect x="379.3683" width="2.5" height="30" y="240" clip-path="url(#clipPath2)" stroke="none"/>
    </g>
    <g text-rendering="geometricPrecision" stroke-miterlimit="1.45" shape-rendering="geometricPrecision" transform="matrix(1,0,0,1,-249,-165)" stroke-linecap="butt">
      <rect fill="none" x="379.3683" width="2.5" height="30" y="240" clip-path="url(#clipPath2)"/>
    </g>
    <g fill="rgb(51,204,204)" text-rendering="geometricPrecision" shape-rendering="geometricPrecision" transform="matrix(1,0,0,1,-249,-165)" stroke="rgb(51,204,204)">
      <rect x="379.417" width="2.5" height="30" y="210" clip-path="url(#clipPath2)" stroke="none"/>
    </g>
    <g text-rendering="geometricPrecision" stroke-miterlimit="1.45" shape-rendering="geometricPrecision" transform="matrix(1,0,0,1,-249,-165)" stroke-linecap="butt">
      <rect fill="none" x="379.417" width="2.5" height="30" y="210" clip-path="url(#clipPath2)"/>
    </g>
    <g fill="rgb(51,204,204)" text-rendering="geometricPrecision" shape-rendering="geometricPrecision" transform="matrix(1,0,0,1,-249,-165)" stroke="rgb(51,204,204)">
      <rect x="379.417" width="2.5" height="30" y="180" clip-path="url(#clipPath2)" stroke="none"/>
    </g>
    <g text-rendering="geometricPrecision" stroke-miterlimit="1.45" shape-rendering="geometricPrecision" transform="matrix(1,0,0,1,-249,-165)" stroke-linecap="butt">
      <rect fill="none" x="379.417" width="2.5" height="30" y="180" clip-path="url(#clipPath2)"/>
    </g>
    <g fill="rgb(255,102,0)" text-rendering="geometricPrecision" shape-rendering="geometricPrecision" transform="matrix(1,0,0,1,-249,-165)" stroke="rgb(255,102,0)">
      <rect x="294.168" width="30" height="2.5" y="205.6372" clip-path="url(#clipPath2)" stroke="none"/>
    </g>
    <g text-rendering="geometricPrecision" stroke-miterlimit="1.45" shape-rendering="geometricPrecision" transform="matrix(1,0,0,1,-249,-165)" stroke-linecap="butt">
      <rect fill="none" x="294.168" width="30" height="2.5" y="205.6372" clip-path="url(#clipPath2)"/>
    </g>
    <g fill="rgb(255,102,0)" text-rendering="geometricPrecision" shape-rendering="geometricPrecision" transform="matrix(1,0,0,1,-249,-165)" stroke="rgb(255,102,0)">
      <rect x="319.7622" width="2.5" height="30" y="180" clip-path="url(#clipPath2)" stroke="none"/>
    </g>
    <g text-rendering="geometricPrecision" stroke-miterlimit="1.45" shape-rendering="geometricPrecision" transform="matrix(1,0,0,1,-249,-165)" stroke-linecap="butt">
      <rect fill="none" x="319.7622" width="2.5" height="30" y="180" clip-path="url(#clipPath2)"/>
    </g>
  </g>
</svg>
