<?xml version="1.0" encoding="UTF-8"?><svg xmlns="http://www.w3.org/2000/svg" xmlns:xlink="http://www.w3.org/1999/xlink" fill-opacity="1" color-rendering="auto" color-interpolation="auto" text-rendering="auto" stroke="black" stroke-linecap="square" width="180" stroke-miterlimit="10" shape-rendering="auto" stroke-opacity="1" fill="black" stroke-dasharray="none" font-weight="normal" stroke-width="1" height="150" font-family="'Dialog'" font-style="normal" stroke-linejoin="miter" font-size="12px" stroke-dashoffset="0" image-rendering="auto">
  <!--Generated by ySVG 2.5-->
  <defs id="genericDefs"/>
  <g>
    <defs id="defs1">
      <clipPath clipPathUnits="userSpaceOnUse" id="clipPath1">
        <path d="M0 0 L180 0 L180 150 L0 150 L0 0 Z"/>
      </clipPath>
      <clipPath clipPathUnits="userSpaceOnUse" id="clipPath2">
        <path d="M20 30 L200 30 L200 180 L20 180 L20 30 Z"/>
      </clipPath>
    </defs>
    <g fill="white" text-rendering="geometricPrecision" shape-rendering="geometricPrecision" transform="translate(-20,-30)" stroke="white">
      <rect x="20" width="180" height="150" y="30" clip-path="url(#clipPath2)" stroke="none"/>
    </g>
    <g fill="gray" text-rendering="geometricPrecision" shape-rendering="geometricPrecision" stroke="gray">
      <line y2="-29" fill="none" x1="-50" clip-path="url(#clipPath1)" x2="-50" y1="-31"/>
      <line y2="-30" fill="none" x1="-51" clip-path="url(#clipPath1)" x2="-49" y1="-30"/>
      <line y2="1" fill="none" x1="-50" clip-path="url(#clipPath1)" x2="-50" y1="-1"/>
      <line y2="0" fill="none" x1="-51" clip-path="url(#clipPath1)" x2="-49" y1="0"/>
      <line y2="31" fill="none" x1="-50" clip-path="url(#clipPath1)" x2="-50" y1="29"/>
      <line y2="30" fill="none" x1="-51" clip-path="url(#clipPath1)" x2="-49" y1="30"/>
      <line y2="61" fill="none" x1="-50" clip-path="url(#clipPath1)" x2="-50" y1="59"/>
      <line y2="60" fill="none" x1="-51" clip-path="url(#clipPath1)" x2="-49" y1="60"/>
      <line y2="91" fill="none" x1="-50" clip-path="url(#clipPath1)" x2="-50" y1="89"/>
      <line y2="90" fill="none" x1="-51" clip-path="url(#clipPath1)" x2="-49" y1="90"/>
      <line y2="121" fill="none" x1="-50" clip-path="url(#clipPath1)" x2="-50" y1="119"/>
      <line y2="120" fill="none" x1="-51" clip-path="url(#clipPath1)" x2="-49" y1="120"/>
      <line y2="151" fill="none" x1="-50" clip-path="url(#clipPath1)" x2="-50" y1="149"/>
      <line y2="150" fill="none" x1="-51" clip-path="url(#clipPath1)" x2="-49" y1="150"/>
      <line y2="181" fill="none" x1="-50" clip-path="url(#clipPath1)" x2="-50" y1="179"/>
      <line y2="180" fill="none" x1="-51" clip-path="url(#clipPath1)" x2="-49" y1="180"/>
      <line y2="-29" fill="none" x1="-20" clip-path="url(#clipPath1)" x2="-20" y1="-31"/>
      <line y2="-30" fill="none" x1="-21" clip-path="url(#clipPath1)" x2="-19" y1="-30"/>
      <line y2="1" fill="none" x1="-20" clip-path="url(#clipPath1)" x2="-20" y1="-1"/>
      <line y2="0" fill="none" x1="-21" clip-path="url(#clipPath1)" x2="-19" y1="0"/>
      <line y2="31" fill="none" x1="-20" clip-path="url(#clipPath1)" x2="-20" y1="29"/>
      <line y2="30" fill="none" x1="-21" clip-path="url(#clipPath1)" x2="-19" y1="30"/>
      <line y2="61" fill="none" x1="-20" clip-path="url(#clipPath1)" x2="-20" y1="59"/>
      <line y2="60" fill="none" x1="-21" clip-path="url(#clipPath1)" x2="-19" y1="60"/>
      <line y2="91" fill="none" x1="-20" clip-path="url(#clipPath1)" x2="-20" y1="89"/>
      <line y2="90" fill="none" x1="-21" clip-path="url(#clipPath1)" x2="-19" y1="90"/>
      <line y2="121" fill="none" x1="-20" clip-path="url(#clipPath1)" x2="-20" y1="119"/>
      <line y2="120" fill="none" x1="-21" clip-path="url(#clipPath1)" x2="-19" y1="120"/>
      <line y2="151" fill="none" x1="-20" clip-path="url(#clipPath1)" x2="-20" y1="149"/>
      <line y2="150" fill="none" x1="-21" clip-path="url(#clipPath1)" x2="-19" y1="150"/>
      <line y2="181" fill="none" x1="-20" clip-path="url(#clipPath1)" x2="-20" y1="179"/>
      <line y2="180" fill="none" x1="-21" clip-path="url(#clipPath1)" x2="-19" y1="180"/>
      <line y2="-29" fill="none" x1="10" clip-path="url(#clipPath1)" x2="10" y1="-31"/>
      <line y2="-30" fill="none" x1="9" clip-path="url(#clipPath1)" x2="11" y1="-30"/>
      <line y2="1" fill="none" x1="10" clip-path="url(#clipPath1)" x2="10" y1="-1"/>
      <line y2="0" fill="none" x1="9" clip-path="url(#clipPath1)" x2="11" y1="0"/>
      <line y2="31" fill="none" x1="10" clip-path="url(#clipPath1)" x2="10" y1="29"/>
      <line y2="30" fill="none" x1="9" clip-path="url(#clipPath1)" x2="11" y1="30"/>
      <line y2="61" fill="none" x1="10" clip-path="url(#clipPath1)" x2="10" y1="59"/>
      <line y2="60" fill="none" x1="9" clip-path="url(#clipPath1)" x2="11" y1="60"/>
      <line y2="91" fill="none" x1="10" clip-path="url(#clipPath1)" x2="10" y1="89"/>
      <line y2="90" fill="none" x1="9" clip-path="url(#clipPath1)" x2="11" y1="90"/>
      <line y2="121" fill="none" x1="10" clip-path="url(#clipPath1)" x2="10" y1="119"/>
      <line y2="120" fill="none" x1="9" clip-path="url(#clipPath1)" x2="11" y1="120"/>
      <line y2="151" fill="none" x1="10" clip-path="url(#clipPath1)" x2="10" y1="149"/>
      <line y2="150" fill="none" x1="9" clip-path="url(#clipPath1)" x2="11" y1="150"/>
      <line y2="181" fill="none" x1="10" clip-path="url(#clipPath1)" x2="10" y1="179"/>
      <line y2="180" fill="none" x1="9" clip-path="url(#clipPath1)" x2="11" y1="180"/>
      <line y2="-29" fill="none" x1="40" clip-path="url(#clipPath1)" x2="40" y1="-31"/>
      <line y2="-30" fill="none" x1="39" clip-path="url(#clipPath1)" x2="41" y1="-30"/>
      <line y2="1" fill="none" x1="40" clip-path="url(#clipPath1)" x2="40" y1="-1"/>
      <line y2="0" fill="none" x1="39" clip-path="url(#clipPath1)" x2="41" y1="0"/>
      <line y2="31" fill="none" x1="40" clip-path="url(#clipPath1)" x2="40" y1="29"/>
      <line y2="30" fill="none" x1="39" clip-path="url(#clipPath1)" x2="41" y1="30"/>
      <line y2="61" fill="none" x1="40" clip-path="url(#clipPath1)" x2="40" y1="59"/>
      <line y2="60" fill="none" x1="39" clip-path="url(#clipPath1)" x2="41" y1="60"/>
      <line y2="91" fill="none" x1="40" clip-path="url(#clipPath1)" x2="40" y1="89"/>
      <line y2="90" fill="none" x1="39" clip-path="url(#clipPath1)" x2="41" y1="90"/>
      <line y2="121" fill="none" x1="40" clip-path="url(#clipPath1)" x2="40" y1="119"/>
      <line y2="120" fill="none" x1="39" clip-path="url(#clipPath1)" x2="41" y1="120"/>
      <line y2="151" fill="none" x1="40" clip-path="url(#clipPath1)" x2="40" y1="149"/>
      <line y2="150" fill="none" x1="39" clip-path="url(#clipPath1)" x2="41" y1="150"/>
      <line y2="181" fill="none" x1="40" clip-path="url(#clipPath1)" x2="40" y1="179"/>
      <line y2="180" fill="none" x1="39" clip-path="url(#clipPath1)" x2="41" y1="180"/>
      <line y2="-29" fill="none" x1="70" clip-path="url(#clipPath1)" x2="70" y1="-31"/>
      <line y2="-30" fill="none" x1="69" clip-path="url(#clipPath1)" x2="71" y1="-30"/>
      <line y2="1" fill="none" x1="70" clip-path="url(#clipPath1)" x2="70" y1="-1"/>
      <line y2="0" fill="none" x1="69" clip-path="url(#clipPath1)" x2="71" y1="0"/>
      <line y2="31" fill="none" x1="70" clip-path="url(#clipPath1)" x2="70" y1="29"/>
      <line y2="30" fill="none" x1="69" clip-path="url(#clipPath1)" x2="71" y1="30"/>
      <line y2="61" fill="none" x1="70" clip-path="url(#clipPath1)" x2="70" y1="59"/>
      <line y2="60" fill="none" x1="69" clip-path="url(#clipPath1)" x2="71" y1="60"/>
      <line y2="91" fill="none" x1="70" clip-path="url(#clipPath1)" x2="70" y1="89"/>
      <line y2="90" fill="none" x1="69" clip-path="url(#clipPath1)" x2="71" y1="90"/>
      <line y2="121" fill="none" x1="70" clip-path="url(#clipPath1)" x2="70" y1="119"/>
      <line y2="120" fill="none" x1="69" clip-path="url(#clipPath1)" x2="71" y1="120"/>
      <line y2="151" fill="none" x1="70" clip-path="url(#clipPath1)" x2="70" y1="149"/>
      <line y2="150" fill="none" x1="69" clip-path="url(#clipPath1)" x2="71" y1="150"/>
      <line y2="181" fill="none" x1="70" clip-path="url(#clipPath1)" x2="70" y1="179"/>
      <line y2="180" fill="none" x1="69" clip-path="url(#clipPath1)" x2="71" y1="180"/>
      <line y2="-29" fill="none" x1="100" clip-path="url(#clipPath1)" x2="100" y1="-31"/>
      <line y2="-30" fill="none" x1="99" clip-path="url(#clipPath1)" x2="101" y1="-30"/>
      <line y2="1" fill="none" x1="100" clip-path="url(#clipPath1)" x2="100" y1="-1"/>
      <line y2="0" fill="none" x1="99" clip-path="url(#clipPath1)" x2="101" y1="0"/>
      <line y2="31" fill="none" x1="100" clip-path="url(#clipPath1)" x2="100" y1="29"/>
      <line y2="30" fill="none" x1="99" clip-path="url(#clipPath1)" x2="101" y1="30"/>
      <line y2="61" fill="none" x1="100" clip-path="url(#clipPath1)" x2="100" y1="59"/>
      <line y2="60" fill="none" x1="99" clip-path="url(#clipPath1)" x2="101" y1="60"/>
      <line y2="91" fill="none" x1="100" clip-path="url(#clipPath1)" x2="100" y1="89"/>
      <line y2="90" fill="none" x1="99" clip-path="url(#clipPath1)" x2="101" y1="90"/>
      <line y2="121" fill="none" x1="100" clip-path="url(#clipPath1)" x2="100" y1="119"/>
      <line y2="120" fill="none" x1="99" clip-path="url(#clipPath1)" x2="101" y1="120"/>
      <line y2="151" fill="none" x1="100" clip-path="url(#clipPath1)" x2="100" y1="149"/>
      <line y2="150" fill="none" x1="99" clip-path="url(#clipPath1)" x2="101" y1="150"/>
      <line y2="181" fill="none" x1="100" clip-path="url(#clipPath1)" x2="100" y1="179"/>
      <line y2="180" fill="none" x1="99" clip-path="url(#clipPath1)" x2="101" y1="180"/>
      <line y2="-29" fill="none" x1="130" clip-path="url(#clipPath1)" x2="130" y1="-31"/>
      <line y2="-30" fill="none" x1="129" clip-path="url(#clipPath1)" x2="131" y1="-30"/>
      <line y2="1" fill="none" x1="130" clip-path="url(#clipPath1)" x2="130" y1="-1"/>
      <line y2="0" fill="none" x1="129" clip-path="url(#clipPath1)" x2="131" y1="0"/>
      <line y2="31" fill="none" x1="130" clip-path="url(#clipPath1)" x2="130" y1="29"/>
      <line y2="30" fill="none" x1="129" clip-path="url(#clipPath1)" x2="131" y1="30"/>
      <line y2="61" fill="none" x1="130" clip-path="url(#clipPath1)" x2="130" y1="59"/>
      <line y2="60" fill="none" x1="129" clip-path="url(#clipPath1)" x2="131" y1="60"/>
      <line y2="91" fill="none" x1="130" clip-path="url(#clipPath1)" x2="130" y1="89"/>
      <line y2="90" fill="none" x1="129" clip-path="url(#clipPath1)" x2="131" y1="90"/>
      <line y2="121" fill="none" x1="130" clip-path="url(#clipPath1)" x2="130" y1="119"/>
      <line y2="120" fill="none" x1="129" clip-path="url(#clipPath1)" x2="131" y1="120"/>
      <line y2="151" fill="none" x1="130" clip-path="url(#clipPath1)" x2="130" y1="149"/>
      <line y2="150" fill="none" x1="129" clip-path="url(#clipPath1)" x2="131" y1="150"/>
      <line y2="181" fill="none" x1="130" clip-path="url(#clipPath1)" x2="130" y1="179"/>
      <line y2="180" fill="none" x1="129" clip-path="url(#clipPath1)" x2="131" y1="180"/>
      <line y2="-29" fill="none" x1="160" clip-path="url(#clipPath1)" x2="160" y1="-31"/>
      <line y2="-30" fill="none" x1="159" clip-path="url(#clipPath1)" x2="161" y1="-30"/>
      <line y2="1" fill="none" x1="160" clip-path="url(#clipPath1)" x2="160" y1="-1"/>
      <line y2="0" fill="none" x1="159" clip-path="url(#clipPath1)" x2="161" y1="0"/>
      <line y2="31" fill="none" x1="160" clip-path="url(#clipPath1)" x2="160" y1="29"/>
      <line y2="30" fill="none" x1="159" clip-path="url(#clipPath1)" x2="161" y1="30"/>
      <line y2="61" fill="none" x1="160" clip-path="url(#clipPath1)" x2="160" y1="59"/>
      <line y2="60" fill="none" x1="159" clip-path="url(#clipPath1)" x2="161" y1="60"/>
      <line y2="91" fill="none" x1="160" clip-path="url(#clipPath1)" x2="160" y1="89"/>
      <line y2="90" fill="none" x1="159" clip-path="url(#clipPath1)" x2="161" y1="90"/>
      <line y2="121" fill="none" x1="160" clip-path="url(#clipPath1)" x2="160" y1="119"/>
      <line y2="120" fill="none" x1="159" clip-path="url(#clipPath1)" x2="161" y1="120"/>
      <line y2="151" fill="none" x1="160" clip-path="url(#clipPath1)" x2="160" y1="149"/>
      <line y2="150" fill="none" x1="159" clip-path="url(#clipPath1)" x2="161" y1="150"/>
      <line y2="181" fill="none" x1="160" clip-path="url(#clipPath1)" x2="160" y1="179"/>
      <line y2="180" fill="none" x1="159" clip-path="url(#clipPath1)" x2="161" y1="180"/>
      <line y2="-29" fill="none" x1="190" clip-path="url(#clipPath1)" x2="190" y1="-31"/>
      <line y2="-30" fill="none" x1="189" clip-path="url(#clipPath1)" x2="191" y1="-30"/>
      <line y2="1" fill="none" x1="190" clip-path="url(#clipPath1)" x2="190" y1="-1"/>
      <line y2="0" fill="none" x1="189" clip-path="url(#clipPath1)" x2="191" y1="0"/>
      <line y2="31" fill="none" x1="190" clip-path="url(#clipPath1)" x2="190" y1="29"/>
      <line y2="30" fill="none" x1="189" clip-path="url(#clipPath1)" x2="191" y1="30"/>
      <line y2="61" fill="none" x1="190" clip-path="url(#clipPath1)" x2="190" y1="59"/>
      <line y2="60" fill="none" x1="189" clip-path="url(#clipPath1)" x2="191" y1="60"/>
      <line y2="91" fill="none" x1="190" clip-path="url(#clipPath1)" x2="190" y1="89"/>
      <line y2="90" fill="none" x1="189" clip-path="url(#clipPath1)" x2="191" y1="90"/>
      <line y2="121" fill="none" x1="190" clip-path="url(#clipPath1)" x2="190" y1="119"/>
      <line y2="120" fill="none" x1="189" clip-path="url(#clipPath1)" x2="191" y1="120"/>
      <line y2="151" fill="none" x1="190" clip-path="url(#clipPath1)" x2="190" y1="149"/>
      <line y2="150" fill="none" x1="189" clip-path="url(#clipPath1)" x2="191" y1="150"/>
      <line y2="181" fill="none" x1="190" clip-path="url(#clipPath1)" x2="190" y1="179"/>
      <line y2="180" fill="none" x1="189" clip-path="url(#clipPath1)" x2="191" y1="180"/>
    </g>
    <g fill="white" text-rendering="geometricPrecision" shape-rendering="geometricPrecision" transform="matrix(1,0,0,1,-20,-30)" stroke="white">
      <rect x="125" width="30" height="30" y="75" clip-path="url(#clipPath2)" stroke="none"/>
    </g>
    <g text-rendering="geometricPrecision" stroke-miterlimit="1.45" shape-rendering="geometricPrecision" transform="matrix(1,0,0,1,-20,-30)" stroke-linecap="butt">
      <rect fill="none" x="125" width="30" height="30" y="75" clip-path="url(#clipPath2)"/>
    </g>
    <g fill="rgb(153,153,153)" text-rendering="geometricPrecision" shape-rendering="geometricPrecision" transform="matrix(1,0,0,1,-20,-30)" stroke="rgb(153,153,153)">
      <rect x="65" width="30" height="30" y="135" clip-path="url(#clipPath2)" stroke="none"/>
    </g>
    <g text-rendering="geometricPrecision" stroke-miterlimit="1.45" shape-rendering="geometricPrecision" transform="matrix(1,0,0,1,-20,-30)" stroke-linecap="butt">
      <rect fill="none" x="65" width="30" height="30" y="135" clip-path="url(#clipPath2)"/>
    </g>
    <g fill="white" text-rendering="geometricPrecision" shape-rendering="geometricPrecision" transform="matrix(1,0,0,1,-20,-30)" stroke="white">
      <rect x="35" width="30" height="30" y="45" clip-path="url(#clipPath2)" stroke="none"/>
    </g>
    <g text-rendering="geometricPrecision" stroke-miterlimit="1.45" shape-rendering="geometricPrecision" transform="matrix(1,0,0,1,-20,-30)" stroke-linecap="butt">
      <rect fill="none" x="35" width="30" height="30" y="45" clip-path="url(#clipPath2)"/>
    </g>
    <g fill="white" text-rendering="geometricPrecision" shape-rendering="geometricPrecision" transform="matrix(1,0,0,1,-20,-30)" stroke="white">
      <rect x="65" width="30" height="30" y="45" clip-path="url(#clipPath2)" stroke="none"/>
    </g>
    <g text-rendering="geometricPrecision" stroke-miterlimit="1.45" shape-rendering="geometricPrecision" transform="matrix(1,0,0,1,-20,-30)" stroke-linecap="butt">
      <rect fill="none" x="65" width="30" height="30" y="45" clip-path="url(#clipPath2)"/>
    </g>
    <g fill="white" text-rendering="geometricPrecision" shape-rendering="geometricPrecision" transform="matrix(1,0,0,1,-20,-30)" stroke="white">
      <rect x="95" width="30" height="30" y="45" clip-path="url(#clipPath2)" stroke="none"/>
    </g>
    <g text-rendering="geometricPrecision" stroke-miterlimit="1.45" shape-rendering="geometricPrecision" transform="matrix(1,0,0,1,-20,-30)" stroke-linecap="butt">
      <rect fill="none" x="95" width="30" height="30" y="45" clip-path="url(#clipPath2)"/>
    </g>
    <g fill="white" text-rendering="geometricPrecision" shape-rendering="geometricPrecision" transform="matrix(1,0,0,1,-20,-30)" stroke="white">
      <rect x="125" width="30" height="30" y="45" clip-path="url(#clipPath2)" stroke="none"/>
    </g>
    <g text-rendering="geometricPrecision" stroke-miterlimit="1.45" shape-rendering="geometricPrecision" transform="matrix(1,0,0,1,-20,-30)" stroke-linecap="butt">
      <rect fill="none" x="125" width="30" height="30" y="45" clip-path="url(#clipPath2)"/>
    </g>
    <g fill="white" text-rendering="geometricPrecision" shape-rendering="geometricPrecision" transform="matrix(1,0,0,1,-20,-30)" stroke="white">
      <rect x="155" width="30" height="30" y="45" clip-path="url(#clipPath2)" stroke="none"/>
    </g>
    <g text-rendering="geometricPrecision" stroke-miterlimit="1.45" shape-rendering="geometricPrecision" transform="matrix(1,0,0,1,-20,-30)" stroke-linecap="butt">
      <rect fill="none" x="155" width="30" height="30" y="45" clip-path="url(#clipPath2)"/>
    </g>
    <g fill="white" text-rendering="geometricPrecision" shape-rendering="geometricPrecision" transform="matrix(1,0,0,1,-20,-30)" stroke="white">
      <rect x="35" width="30" height="30" y="75" clip-path="url(#clipPath2)" stroke="none"/>
    </g>
    <g text-rendering="geometricPrecision" stroke-miterlimit="1.45" shape-rendering="geometricPrecision" transform="matrix(1,0,0,1,-20,-30)" stroke-linecap="butt">
      <rect fill="none" x="35" width="30" height="30" y="75" clip-path="url(#clipPath2)"/>
    </g>
    <g fill="white" text-rendering="geometricPrecision" shape-rendering="geometricPrecision" transform="matrix(1,0,0,1,-20,-30)" stroke="white">
      <rect x="65" width="30" height="30" y="75" clip-path="url(#clipPath2)" stroke="none"/>
    </g>
    <g text-rendering="geometricPrecision" stroke-miterlimit="1.45" shape-rendering="geometricPrecision" transform="matrix(1,0,0,1,-20,-30)" stroke-linecap="butt">
      <rect fill="none" x="65" width="30" height="30" y="75" clip-path="url(#clipPath2)"/>
    </g>
    <g fill="white" text-rendering="geometricPrecision" shape-rendering="geometricPrecision" transform="matrix(1,0,0,1,-20,-30)" stroke="white">
      <rect x="95" width="30" height="30" y="75" clip-path="url(#clipPath2)" stroke="none"/>
    </g>
    <g text-rendering="geometricPrecision" stroke-miterlimit="1.45" shape-rendering="geometricPrecision" transform="matrix(1,0,0,1,-20,-30)" stroke-linecap="butt">
      <rect fill="none" x="95" width="30" height="30" y="75" clip-path="url(#clipPath2)"/>
    </g>
    <g fill="white" text-rendering="geometricPrecision" shape-rendering="geometricPrecision" transform="matrix(1,0,0,1,-20,-30)" stroke="white">
      <rect x="155" width="30" height="30" y="75" clip-path="url(#clipPath2)" stroke="none"/>
    </g>
    <g text-rendering="geometricPrecision" stroke-miterlimit="1.45" shape-rendering="geometricPrecision" transform="matrix(1,0,0,1,-20,-30)" stroke-linecap="butt">
      <rect fill="none" x="155" width="30" height="30" y="75" clip-path="url(#clipPath2)"/>
    </g>
    <g fill="white" text-rendering="geometricPrecision" shape-rendering="geometricPrecision" transform="matrix(1,0,0,1,-20,-30)" stroke="white">
      <rect x="65" width="30" height="30" y="105" clip-path="url(#clipPath2)" stroke="none"/>
    </g>
    <g text-rendering="geometricPrecision" stroke-miterlimit="1.45" shape-rendering="geometricPrecision" transform="matrix(1,0,0,1,-20,-30)" stroke-linecap="butt">
      <rect fill="none" x="65" width="30" height="30" y="105" clip-path="url(#clipPath2)"/>
    </g>
    <g fill="white" text-rendering="geometricPrecision" shape-rendering="geometricPrecision" transform="matrix(1,0,0,1,-20,-30)" stroke="white">
      <rect x="95" width="30" height="30" y="105" clip-path="url(#clipPath2)" stroke="none"/>
    </g>
    <g text-rendering="geometricPrecision" stroke-miterlimit="1.45" shape-rendering="geometricPrecision" transform="matrix(1,0,0,1,-20,-30)" stroke-linecap="butt">
      <rect fill="none" x="95" width="30" height="30" y="105" clip-path="url(#clipPath2)"/>
    </g>
    <g fill="white" text-rendering="geometricPrecision" shape-rendering="geometricPrecision" transform="matrix(1,0,0,1,-20,-30)" stroke="white">
      <rect x="125" width="30" height="30" y="105" clip-path="url(#clipPath2)" stroke="none"/>
    </g>
    <g text-rendering="geometricPrecision" stroke-miterlimit="1.45" shape-rendering="geometricPrecision" transform="matrix(1,0,0,1,-20,-30)" stroke-linecap="butt">
      <rect fill="none" x="125" width="30" height="30" y="105" clip-path="url(#clipPath2)"/>
    </g>
    <g fill="white" text-rendering="geometricPrecision" shape-rendering="geometricPrecision" transform="matrix(1,0,0,1,-20,-30)" stroke="white">
      <rect x="155" width="30" height="30" y="105" clip-path="url(#clipPath2)" stroke="none"/>
    </g>
    <g text-rendering="geometricPrecision" stroke-miterlimit="1.45" shape-rendering="geometricPrecision" transform="matrix(1,0,0,1,-20,-30)" stroke-linecap="butt">
      <rect fill="none" x="155" width="30" height="30" y="105" clip-path="url(#clipPath2)"/>
    </g>
    <g fill="rgb(153,153,153)" text-rendering="geometricPrecision" shape-rendering="geometricPrecision" transform="matrix(1,0,0,1,-20,-30)" stroke="rgb(153,153,153)">
      <rect x="65" width="30" height="30" y="135" clip-path="url(#clipPath2)" stroke="none"/>
    </g>
    <g text-rendering="geometricPrecision" stroke-miterlimit="1.45" shape-rendering="geometricPrecision" transform="matrix(1,0,0,1,-20,-30)" stroke-linecap="butt">
      <rect fill="none" x="65" width="30" height="30" y="135" clip-path="url(#clipPath2)"/>
    </g>
    <g fill="rgb(153,153,153)" text-rendering="geometricPrecision" shape-rendering="geometricPrecision" transform="matrix(1,0,0,1,-20,-30)" stroke="rgb(153,153,153)">
      <rect x="95" width="30" height="30" y="135" clip-path="url(#clipPath2)" stroke="none"/>
    </g>
    <g text-rendering="geometricPrecision" stroke-miterlimit="1.45" shape-rendering="geometricPrecision" transform="matrix(1,0,0,1,-20,-30)" stroke-linecap="butt">
      <rect fill="none" x="95" width="30" height="30" y="135" clip-path="url(#clipPath2)"/>
    </g>
    <g fill="rgb(153,153,153)" text-rendering="geometricPrecision" shape-rendering="geometricPrecision" transform="matrix(1,0,0,1,-20,-30)" stroke="rgb(153,153,153)">
      <rect x="125" width="30" height="30" y="135" clip-path="url(#clipPath2)" stroke="none"/>
    </g>
    <g text-rendering="geometricPrecision" stroke-miterlimit="1.45" shape-rendering="geometricPrecision" transform="matrix(1,0,0,1,-20,-30)" stroke-linecap="butt">
      <rect fill="none" x="125" width="30" height="30" y="135" clip-path="url(#clipPath2)"/>
      <rect stroke-linecap="square" x="155" y="135" clip-path="url(#clipPath2)" width="30" height="30" stroke="none" stroke-miterlimit="10"/>
      <rect fill="none" x="155" width="30" height="30" y="135" clip-path="url(#clipPath2)"/>
    </g>
    <g fill="rgb(153,153,153)" text-rendering="geometricPrecision" shape-rendering="geometricPrecision" transform="matrix(1,0,0,1,-20,-30)" stroke="rgb(153,153,153)">
      <rect x="155" width="30" height="30" y="45" clip-path="url(#clipPath2)" stroke="none"/>
    </g>
    <g text-rendering="geometricPrecision" stroke-miterlimit="1.45" shape-rendering="geometricPrecision" transform="matrix(1,0,0,1,-20,-30)" stroke-linecap="butt">
      <rect fill="none" x="155" width="30" height="30" y="45" clip-path="url(#clipPath2)"/>
    </g>
    <g fill="rgb(153,153,153)" text-rendering="geometricPrecision" shape-rendering="geometricPrecision" transform="matrix(1,0,0,1,-20,-30)" stroke="rgb(153,153,153)">
      <rect x="155" width="30" height="30" y="75" clip-path="url(#clipPath2)" stroke="none"/>
    </g>
    <g text-rendering="geometricPrecision" stroke-miterlimit="1.45" shape-rendering="geometricPrecision" transform="matrix(1,0,0,1,-20,-30)" stroke-linecap="butt">
      <rect fill="none" x="155" width="30" height="30" y="75" clip-path="url(#clipPath2)"/>
    </g>
    <g fill="rgb(153,153,153)" text-rendering="geometricPrecision" shape-rendering="geometricPrecision" transform="matrix(1,0,0,1,-20,-30)" stroke="rgb(153,153,153)">
      <rect x="155" width="30" height="30" y="135" clip-path="url(#clipPath2)" stroke="none"/>
    </g>
    <g text-rendering="geometricPrecision" stroke-miterlimit="1.45" shape-rendering="geometricPrecision" transform="matrix(1,0,0,1,-20,-30)" stroke-linecap="butt">
      <rect fill="none" x="155" width="30" height="30" y="135" clip-path="url(#clipPath2)"/>
    </g>
    <g fill="rgb(153,153,153)" text-rendering="geometricPrecision" shape-rendering="geometricPrecision" transform="matrix(1,0,0,1,-20,-30)" stroke="rgb(153,153,153)">
      <rect x="35" width="30" height="30" y="45" clip-path="url(#clipPath2)" stroke="none"/>
    </g>
    <g text-rendering="geometricPrecision" stroke-miterlimit="1.45" shape-rendering="geometricPrecision" transform="matrix(1,0,0,1,-20,-30)" stroke-linecap="butt">
      <rect fill="none" x="35" width="30" height="30" y="45" clip-path="url(#clipPath2)"/>
    </g>
    <g fill="white" text-rendering="geometricPrecision" shape-rendering="geometricPrecision" transform="matrix(1,0,0,1,-20,-30)" stroke="white">
      <rect x="35" width="30" height="30" y="105" clip-path="url(#clipPath2)" stroke="none"/>
    </g>
    <g text-rendering="geometricPrecision" stroke-miterlimit="1.45" shape-rendering="geometricPrecision" transform="matrix(1,0,0,1,-20,-30)" stroke-linecap="butt">
      <rect fill="none" x="35" width="30" height="30" y="105" clip-path="url(#clipPath2)"/>
    </g>
    <g fill="white" text-rendering="geometricPrecision" shape-rendering="geometricPrecision" transform="matrix(1,0,0,1,-20,-30)" stroke="white">
      <rect x="65" width="30" height="30" y="135" clip-path="url(#clipPath2)" stroke="none"/>
    </g>
    <g text-rendering="geometricPrecision" stroke-miterlimit="1.45" shape-rendering="geometricPrecision" transform="matrix(1,0,0,1,-20,-30)" stroke-linecap="butt">
      <rect fill="none" x="65" width="30" height="30" y="135" clip-path="url(#clipPath2)"/>
    </g>
    <g fill="white" text-rendering="geometricPrecision" shape-rendering="geometricPrecision" transform="matrix(1,0,0,1,-20,-30)" stroke="white">
      <rect x="35" width="30" height="30" y="135" clip-path="url(#clipPath2)" stroke="none"/>
    </g>
    <g text-rendering="geometricPrecision" stroke-miterlimit="1.45" shape-rendering="geometricPrecision" transform="matrix(1,0,0,1,-20,-30)" stroke-linecap="butt">
      <rect fill="none" x="35" width="30" height="30" y="135" clip-path="url(#clipPath2)"/>
    </g>
    <g fill="rgb(153,153,153)" text-rendering="geometricPrecision" shape-rendering="geometricPrecision" transform="matrix(1,0,0,1,-20,-30)" stroke="rgb(153,153,153)">
      <rect x="65" width="30" height="30" y="135" clip-path="url(#clipPath2)" stroke="none"/>
    </g>
    <g text-rendering="geometricPrecision" stroke-miterlimit="1.45" shape-rendering="geometricPrecision" transform="matrix(1,0,0,1,-20,-30)" stroke-linecap="butt">
      <rect fill="none" x="65" width="30" height="30" y="135" clip-path="url(#clipPath2)"/>
      <rect x="65" y="45" clip-path="url(#clipPath2)" fill="none" width="30" height="30" stroke-width="4"/>
      <rect x="65" y="45" clip-path="url(#clipPath2)" fill="none" width="60" height="60" stroke-width="4"/>
      <rect x="65" y="45" clip-path="url(#clipPath2)" fill="none" width="88.1805" height="88.1805" stroke-width="4"/>
    </g>
  </g>
</svg>
