<?xml version="1.0" encoding="UTF-8"?><svg xmlns="http://www.w3.org/2000/svg" xmlns:xlink="http://www.w3.org/1999/xlink" fill-opacity="1" color-rendering="auto" color-interpolation="auto" text-rendering="auto" stroke="black" stroke-linecap="square" width="329" stroke-miterlimit="10" shape-rendering="auto" stroke-opacity="1" fill="black" stroke-dasharray="none" font-weight="normal" stroke-width="1" height="181" font-family="'Dialog'" font-style="normal" stroke-linejoin="miter" font-size="12px" stroke-dashoffset="0" image-rendering="auto">
  <!--Generated by ySVG 2.5-->
  <defs id="genericDefs"/>
  <g>
    <defs id="defs1">
      <clipPath clipPathUnits="userSpaceOnUse" id="clipPath1">
        <path d="M0 0 L329 0 L329 181 L0 181 L0 0 Z"/>
      </clipPath>
      <clipPath clipPathUnits="userSpaceOnUse" id="clipPath2">
        <path d="M1059 482 L1388 482 L1388 663 L1059 663 L1059 482 Z"/>
      </clipPath>
    </defs>
    <g fill="white" text-rendering="geometricPrecision" shape-rendering="geometricPrecision" transform="translate(-1059,-482)" stroke="white">
      <rect x="1059" width="329" height="181" y="482" clip-path="url(#clipPath2)" stroke="none"/>
    </g>
    <g text-rendering="geometricPrecision" stroke-miterlimit="1.45" shape-rendering="geometricPrecision" transform="matrix(1,0,0,1,-1059,-482)" stroke-linecap="butt">
      <rect fill="none" x="1102.5672" width="30" height="30" y="557.572" clip-path="url(#clipPath2)"/>
      <text x="1114.2312" xml:space="preserve" y="575.3201" clip-path="url(#clipPath2)" font-family="sans-serif" stroke="none">1</text>
      <text x="1084.7639" xml:space="preserve" y="575.3201" clip-path="url(#clipPath2)" font-family="sans-serif" stroke="none">X</text>
      <rect fill="none" x="1132.5672" width="30" height="30" y="557.572" clip-path="url(#clipPath2)"/>
      <text x="1144.2312" xml:space="preserve" y="575.3201" clip-path="url(#clipPath2)" font-family="sans-serif" stroke="none">3</text>
      <rect fill="none" x="1162.5672" width="30" height="30" y="557.572" clip-path="url(#clipPath2)"/>
      <text x="1174.2312" xml:space="preserve" y="575.3201" clip-path="url(#clipPath2)" font-family="sans-serif" stroke="none">5</text>
      <rect fill="none" x="1192.5672" width="30" height="30" y="557.572" clip-path="url(#clipPath2)"/>
      <text x="1204.2312" xml:space="preserve" y="575.3201" clip-path="url(#clipPath2)" font-family="sans-serif" stroke="none">8</text>
      <rect fill="none" x="1282.5672" width="30" height="30" y="557.572" clip-path="url(#clipPath2)"/>
      <text x="1294.2312" xml:space="preserve" y="575.3201" clip-path="url(#clipPath2)" font-family="sans-serif" stroke="none">2</text>
      <text x="1268.5632" xml:space="preserve" y="575.3201" clip-path="url(#clipPath2)" font-family="sans-serif" stroke="none">Y</text>
      <rect fill="none" x="1312.5672" width="30" height="30" y="557.572" clip-path="url(#clipPath2)"/>
      <text x="1324.2312" xml:space="preserve" y="575.3201" clip-path="url(#clipPath2)" font-family="sans-serif" stroke="none">4</text>
      <rect fill="none" x="1342.5672" width="30" height="30" y="557.572" clip-path="url(#clipPath2)"/>
      <text x="1354.2312" xml:space="preserve" y="575.3201" clip-path="url(#clipPath2)" font-family="sans-serif" stroke="none">7</text>
      <rect fill="none" x="1132.5672" width="30" height="30" y="617.572" clip-path="url(#clipPath2)"/>
      <rect fill="none" x="1162.5672" width="30" height="30" y="617.572" clip-path="url(#clipPath2)"/>
      <rect fill="none" x="1192.5672" width="30" height="30" y="617.572" clip-path="url(#clipPath2)"/>
      <rect fill="none" x="1222.5672" width="30" height="30" y="557.572" clip-path="url(#clipPath2)"/>
      <text x="1230.8951" xml:space="preserve" y="575.3201" clip-path="url(#clipPath2)" font-family="sans-serif" stroke="none">15</text>
      <rect fill="none" x="1222.5672" width="30" height="30" y="617.572" clip-path="url(#clipPath2)"/>
      <rect fill="none" x="1252.5672" width="30" height="30" y="617.572" clip-path="url(#clipPath2)"/>
      <rect fill="none" x="1282.5672" width="30" height="30" y="617.572" clip-path="url(#clipPath2)"/>
      <rect fill="none" x="1312.5672" width="30" height="30" y="617.572" clip-path="url(#clipPath2)"/>
      <rect fill="none" x="1102.5672" width="30" height="30" y="617.572" clip-path="url(#clipPath2)"/>
      <text x="1114.2312" xml:space="preserve" y="635.3201" clip-path="url(#clipPath2)" font-family="sans-serif" stroke="none">1</text>
      <text x="1089.2352" xml:space="preserve" y="635.3201" clip-path="url(#clipPath2)" font-family="sans-serif" stroke="none">Z</text>
    </g>
    <g text-rendering="geometricPrecision" stroke-miterlimit="1.45" shape-rendering="geometricPrecision" transform="matrix(1,0,0,1,-1059,-482)" stroke-linecap="butt">
      <path fill="none" d="M1116.0673 587.572 L1116.0673 605.422 L1111.3173 602.572 L1117.5673 617.572 L1123.8173 602.572 L1119.0673 605.422 L1119.0673 587.572 Z" clip-path="url(#clipPath2)"/>
    </g>
    <g text-rendering="geometricPrecision" stroke-miterlimit="1.45" shape-rendering="geometricPrecision" transform="matrix(1,0,0,1,-1059,-482)" stroke-linecap="butt">
      <path fill="none" d="M1117.5673 527.572 L1117.5673 549.572" clip-path="url(#clipPath2)"/>
      <path d="M1117.5673 557.572 L1122.5673 545.572 L1117.5673 548.572 L1112.5673 545.572 Z" clip-path="url(#clipPath2)" stroke="none"/>
      <text x="1076.7671" y="546.1721" clip-path="url(#clipPath2)" font-family="'FreeMono'" stroke="none" font-weight="bold" xml:space="preserve">itA</text>
      <path fill="none" d="M1297.5673 527.572 L1297.5673 549.572" clip-path="url(#clipPath2)"/>
      <path d="M1297.5673 557.572 L1302.5673 545.572 L1297.5673 548.572 L1292.5673 545.572 Z" clip-path="url(#clipPath2)" stroke="none"/>
      <text x="1256.7671" y="546.1721" clip-path="url(#clipPath2)" font-family="'FreeMono'" stroke="none" font-weight="bold" xml:space="preserve">itB</text>
    </g>
  </g>
</svg>
