<?xml version="1.0" encoding="UTF-8" standalone="no"?>
<!-- Created with Inkscape (http://www.inkscape.org/) -->

<svg
   xmlns:osb="http://www.openswatchbook.org/uri/2009/osb"
   xmlns:dc="http://purl.org/dc/elements/1.1/"
   xmlns:cc="http://creativecommons.org/ns#"
   xmlns:rdf="http://www.w3.org/1999/02/22-rdf-syntax-ns#"
   xmlns:svg="http://www.w3.org/2000/svg"
   xmlns="http://www.w3.org/2000/svg"
   xmlns:xlink="http://www.w3.org/1999/xlink"
   xmlns:sodipodi="http://sodipodi.sourceforge.net/DTD/sodipodi-0.dtd"
   xmlns:inkscape="http://www.inkscape.org/namespaces/inkscape"
   width="210mm"
   height="297mm"
   viewBox="0 0 210 297"
   version="1.1"
   id="svg8"
   sodipodi:docname="linked_list.svg"
   inkscape:version="0.92.4 5da689c313, 2019-01-14">
  <defs
     id="defs2">
    <linearGradient
       id="linearGradient9258"
       osb:paint="solid">
      <stop
         style="stop-color:#000000;stop-opacity:1;"
         offset="0"
         id="stop9256" />
    </linearGradient>
    <linearGradient
       id="linearGradient8395"
       osb:paint="solid">
      <stop
         style="stop-color:#000000;stop-opacity:1;"
         offset="0"
         id="stop8393" />
    </linearGradient>
    <marker
       inkscape:stockid="Arrow1Lstart"
       orient="auto"
       refY="0.0"
       refX="0.0"
       id="Arrow1Lstart"
       style="overflow:visible"
       inkscape:isstock="true">
      <path
         id="path6072"
         d="M 0.0,0.0 L 5.0,-5.0 L -12.5,0.0 L 5.0,5.0 L 0.0,0.0 z "
         style="fill-rule:evenodd;stroke:#000000;stroke-width:1pt;stroke-opacity:1;fill:#000000;fill-opacity:1"
         transform="scale(0.8) translate(12.5,0)" />
    </marker>
    <marker
       inkscape:stockid="Arrow1Lend"
       orient="auto"
       refY="0.0"
       refX="0.0"
       id="marker7026"
       style="overflow:visible;"
       inkscape:isstock="true">
      <path
         id="path7024"
         d="M 0.0,0.0 L 5.0,-5.0 L -12.5,0.0 L 5.0,5.0 L 0.0,0.0 z "
         style="fill-rule:evenodd;stroke:#000000;stroke-width:1pt;stroke-opacity:1;fill:#000000;fill-opacity:1"
         transform="scale(0.8) rotate(180) translate(12.5,0)" />
    </marker>
    <marker
       inkscape:isstock="true"
       style="overflow:visible;"
       id="marker6980"
       refX="0.0"
       refY="0.0"
       orient="auto"
       inkscape:stockid="Arrow1Lend"
       inkscape:collect="always">
      <path
         transform="scale(0.8) rotate(180) translate(12.5,0)"
         style="fill-rule:evenodd;stroke:#000000;stroke-width:1pt;stroke-opacity:1;fill:#000000;fill-opacity:1"
         d="M 0.0,0.0 L 5.0,-5.0 L -12.5,0.0 L 5.0,5.0 L 0.0,0.0 z "
         id="path6978" />
    </marker>
    <marker
       inkscape:stockid="Arrow1Mend"
       orient="auto"
       refY="0.0"
       refX="0.0"
       id="Arrow1Mend"
       style="overflow:visible;"
       inkscape:isstock="true">
      <path
         id="path6081"
         d="M 0.0,0.0 L 5.0,-5.0 L -12.5,0.0 L 5.0,5.0 L 0.0,0.0 z "
         style="fill-rule:evenodd;stroke:#000000;stroke-width:1pt;stroke-opacity:1;fill:#000000;fill-opacity:1"
         transform="scale(0.4) rotate(180) translate(10,0)" />
    </marker>
    <marker
       inkscape:stockid="Arrow1Lend"
       orient="auto"
       refY="0.0"
       refX="0.0"
       id="Arrow1Lend"
       style="overflow:visible;"
       inkscape:isstock="true"
       inkscape:collect="always">
      <path
         id="path6075"
         d="M 0.0,0.0 L 5.0,-5.0 L -12.5,0.0 L 5.0,5.0 L 0.0,0.0 z "
         style="fill-rule:evenodd;stroke:#000000;stroke-width:1pt;stroke-opacity:1;fill:#000000;fill-opacity:1"
         transform="scale(0.8) rotate(180) translate(12.5,0)" />
    </marker>
    <linearGradient
       id="linearGradient5990"
       osb:paint="solid">
      <stop
         style="stop-color:#000000;stop-opacity:1;"
         offset="0"
         id="stop5988" />
    </linearGradient>
    <linearGradient
       id="linearGradient4526"
       osb:paint="solid">
      <stop
         style="stop-color:#000000;stop-opacity:1;"
         offset="0"
         id="stop4524" />
    </linearGradient>
  </defs>
  <sodipodi:namedview
     id="base"
     pagecolor="#ffffff"
     bordercolor="#666666"
     borderopacity="1.0"
     inkscape:pageopacity="0.0"
     inkscape:pageshadow="2"
     inkscape:zoom="3.959798"
     inkscape:cx="283.86898"
     inkscape:cy="815.34728"
     inkscape:document-units="mm"
     inkscape:current-layer="layer1"
     showgrid="false"
     inkscape:window-width="2560"
     inkscape:window-height="1080"
     inkscape:window-x="1920"
     inkscape:window-y="0"
     inkscape:window-maximized="0"
     inkscape:snap-global="false" />
  <metadata
     id="metadata5">
    <rdf:RDF>
      <cc:Work
         rdf:about="">
        <dc:format>image/svg+xml</dc:format>
        <dc:type
           rdf:resource="http://purl.org/dc/dcmitype/StillImage" />
      </cc:Work>
    </rdf:RDF>
  </metadata>
  <g
     inkscape:label="Layer 1"
     inkscape:groupmode="layer"
     id="layer1">
    <path
       style="opacity:0.08399999;fill:#f40000;fill-opacity:1;stroke:#000000;stroke-width:0.04804923;stroke-opacity:1"
       d="m 22.445807,50.293522 a 5.8314199,5.7209258 0 0 1 -5.831419,5.720926 5.8314199,5.7209258 0 0 1 -5.83142,-5.720926 5.8314199,5.7209258 0 0 1 5.83142,-5.720926 5.8314199,5.7209258 0 0 1 5.831419,5.720926 z"
       id="path3717" />
    <path
       style="opacity:0.08399999;fill:#f40000;fill-opacity:1;stroke:#000000;stroke-width:0.04804923;stroke-opacity:1"
       d="m 48.801845,50.293522 a 5.8314199,5.7209258 0 0 1 -5.83142,5.720926 5.8314199,5.7209258 0 0 1 -5.83142,-5.720926 5.8314199,5.7209258 0 0 1 5.83142,-5.720926 5.8314199,5.7209258 0 0 1 5.83142,5.720926 z"
       id="path3717-6" />
    <path
       style="opacity:0.08399999;fill:#f40000;fill-opacity:1;stroke:#000000;stroke-width:0.04804923;stroke-opacity:1"
       d="m 72.485183,50.293522 a 5.8314199,5.7209258 0 0 1 -5.83142,5.720926 5.8314199,5.7209258 0 0 1 -5.83142,-5.720926 5.8314199,5.7209258 0 0 1 5.83142,-5.720926 5.8314199,5.7209258 0 0 1 5.83142,5.720926 z"
       id="path3717-6-7" />
    <path
       style="opacity:0.08399999;fill:#f40000;fill-opacity:1;stroke:#000000;stroke-width:0.04804923;stroke-opacity:1"
       d="m 97.504867,50.293522 a 5.8314199,5.7209258 0 0 1 -5.83142,5.720926 5.8314199,5.7209258 0 0 1 -5.83142,-5.720926 5.8314199,5.7209258 0 0 1 5.83142,-5.720926 5.8314199,5.7209258 0 0 1 5.83142,5.720926 z"
       id="path3717-6-5" />
    <path
       style="fill:none;fill-rule:evenodd;stroke:#000000;stroke-width:0.16500001;stroke-linecap:butt;stroke-linejoin:miter;stroke-miterlimit:4;stroke-dasharray:none;stroke-opacity:1;marker-end:url(#Arrow1Lend)"
       d="m 22.206019,48.670228 15.12599,0.163665"
       id="path6870"
       inkscape:export-xdpi="96"
       inkscape:export-ydpi="96" />
    <path
       style="fill:none;fill-rule:evenodd;stroke:#000000;stroke-width:0.16500001;stroke-linecap:butt;stroke-linejoin:miter;stroke-miterlimit:4;stroke-dasharray:none;stroke-opacity:1;marker-end:url(#marker7026)"
       d="m 48.641941,48.963192 12.306273,0.14818"
       id="path6872"
       inkscape:export-xdpi="96"
       inkscape:export-ydpi="96" />
    <path
       style="fill:none;fill-rule:evenodd;stroke:#000000;stroke-width:0.16500001;stroke-linecap:butt;stroke-linejoin:miter;stroke-miterlimit:4;stroke-dasharray:none;stroke-opacity:1;marker-end:url(#marker6980)"
       d="M 72.398519,49.311033 85.882872,49.61843"
       id="path6874"
       inkscape:export-xdpi="96"
       inkscape:export-ydpi="96" />
    <g
       aria-label="3"
       style="font-style:normal;font-weight:normal;font-size:6.16622543px;line-height:1.25;font-family:sans-serif;letter-spacing:0px;word-spacing:0px;fill:#000000;fill-opacity:1;stroke:none;stroke-width:0.15415563"
       id="text6886">
      <path
         d="m 67.165585,49.753098 q 0.436573,0.09334 0.680452,0.3884 0.24689,0.295063 0.24689,0.728626 0,0.665399 -0.457649,1.029712 -0.45765,0.364313 -1.300688,0.364313 -0.283021,0 -0.584106,-0.05721 -0.298074,-0.0542 -0.617224,-0.165597 V 51.45423 q 0.252911,0.147531 0.553996,0.222803 0.301086,0.07527 0.629268,0.07527 0.572062,0 0.870137,-0.225814 0.301085,-0.225814 0.301085,-0.656366 0,-0.397432 -0.280009,-0.620235 -0.276999,-0.225814 -0.773789,-0.225814 h -0.523889 v -0.499802 h 0.547976 q 0.448617,0 0.686474,-0.17764 0.237857,-0.180651 0.237857,-0.517867 0,-0.346248 -0.24689,-0.52991 -0.243879,-0.186672 -0.701528,-0.186672 -0.249901,0 -0.535932,0.05419 -0.286031,0.05419 -0.629268,0.168608 v -0.541954 q 0.346248,-0.09635 0.647333,-0.144521 0.304096,-0.04817 0.572062,-0.04817 0.692496,0 1.09595,0.316139 0.403454,0.313129 0.403454,0.84906 0,0.373346 -0.21377,0.632279 -0.213771,0.255923 -0.608192,0.355281 z"
         style="stroke-width:0.15415563"
         id="path8173" />
    </g>
    <flowRoot
       xml:space="preserve"
       id="flowRoot6892"
       style="fill:black;fill-opacity:1;stroke:none;font-family:sans-serif;font-style:normal;font-weight:normal;font-size:40px;line-height:1.25;letter-spacing:0px;word-spacing:0px"><flowRegion
         id="flowRegion6894"><rect
           id="rect6896"
           width="300.52039"
           height="42.426407"
           x="101.26779"
           y="116.15521" /></flowRegion><flowPara
         id="flowPara6898"></flowPara></flowRoot>    <g
       aria-label="4"
       style="font-style:normal;font-weight:normal;font-size:6.16622591px;line-height:1.25;font-family:sans-serif;letter-spacing:0px;word-spacing:0px;fill:#000000;fill-opacity:1;stroke:none;stroke-width:0.15415563"
       id="text6886-3">
      <path
         d="m 92.187951,48.641713 -1.535534,2.39965 h 1.535534 z m -0.159575,-0.52991 h 0.764757 v 2.92956 h 0.641311 v 0.505823 h -0.641311 v 1.05982 h -0.605182 v -1.05982 H 90.158637 V 50.96007 Z"
         style="stroke-width:0.15415563"
         id="path8170" />
    </g>
    <g
       aria-label="2"
       style="font-style:normal;font-weight:normal;font-size:6.16622591px;line-height:1.25;font-family:sans-serif;letter-spacing:0px;word-spacing:0px;fill:#000000;fill-opacity:1;stroke:none;stroke-width:0.15415563"
       id="text6886-6">
      <path
         d="m 42.197311,51.880073 h 2.122651 v 0.511845 h -2.854288 v -0.511845 q 0.346248,-0.358291 0.942396,-0.960462 0.59916,-0.605181 0.752714,-0.77981 0.292052,-0.328183 0.406465,-0.553997 0.117423,-0.228825 0.117423,-0.448617 0,-0.358292 -0.252912,-0.584106 -0.2499,-0.225814 -0.653355,-0.225814 -0.286031,0 -0.605181,0.09936 -0.31614,0.09936 -0.677442,0.301086 v -0.614214 q 0.367324,-0.147532 0.686474,-0.222803 0.319151,-0.07527 0.584106,-0.07527 0.698518,0 1.114015,0.349259 0.415498,0.349259 0.415498,0.933365 0,0.276998 -0.10538,0.526899 -0.102369,0.24689 -0.376356,0.584105 -0.07527,0.08732 -0.478726,0.505823 -0.403454,0.415498 -1.138102,1.1652 z"
         style="stroke-width:0.15415563"
         id="path8167" />
    </g>
    <g
       aria-label="1"
       style="font-style:normal;font-weight:normal;font-size:6.16622591px;line-height:1.25;font-family:sans-serif;letter-spacing:0px;word-spacing:0px;fill:#000000;fill-opacity:1;stroke:none;stroke-width:0.15415563"
       id="text6886-9">
      <path
         d="m 15.38594,52.310249 h 0.993581 v -3.429361 l -1.080896,0.216781 V 48.543673 L 16.3735,48.326891 h 0.608192 v 3.983358 h 0.993581 v 0.511845 H 15.38594 Z"
         style="stroke-width:0.15415563"
         id="path8164" />
    </g>
    <path
       style="fill:none;fill-rule:evenodd;stroke:#000000;stroke-width:0.26458332px;stroke-linecap:butt;stroke-linejoin:miter;stroke-opacity:1;marker-start:url(#Arrow1Lstart)"
       d="m 48.801845,50.293522 c 12.249724,15.908477 24.612585,13.262613 37.040182,0"
       id="path7104"
       sodipodi:nodetypes="cc"
       inkscape:export-xdpi="96"
       inkscape:export-ydpi="96" />
    <use
       x="0"
       y="0"
       xlink:href="#path3717"
       id="use8332"
       transform="translate(17.372519,39.021351)"
       width="100%"
       height="100%" />
    <use
       x="0"
       y="0"
       xlink:href="#path3717-6"
       id="use8334"
       transform="translate(17.372519,39.021351)"
       width="100%"
       height="100%" />
    <use
       x="0"
       y="0"
       xlink:href="#path3717-6-7"
       id="use8336"
       transform="translate(17.372519,39.021351)"
       width="100%"
       height="100%" />
    <use
       x="0"
       y="0"
       xlink:href="#path3717-6-5"
       id="use8338"
       transform="translate(17.372519,39.021351)"
       width="100%"
       height="100%" />
    <use
       x="0"
       y="0"
       xlink:href="#path6870"
       id="use8340"
       transform="translate(17.372519,40.509245)"
       width="100%"
       height="100%" />
    <use
       x="0"
       y="0"
       xlink:href="#path6872"
       id="use8342"
       transform="translate(17.372519,40.234954)"
       width="100%"
       height="100%" />
    <use
       x="0"
       y="0"
       xlink:href="#path6874"
       id="use8344"
       transform="translate(17.372519,39.755981)"
       width="100%"
       height="100%" />
    <use
       x="0"
       y="0"
       xlink:href="#text6886"
       id="use8346"
       transform="translate(17.372519,39.382631)"
       width="100%"
       height="100%" />
    <use
       x="0"
       y="0"
       xlink:href="#text6886-3"
       id="use8348"
       transform="translate(17.372519,38.955469)"
       width="100%"
       height="100%" />
    <use
       x="0"
       y="0"
       xlink:href="#text6886-6"
       id="use8350"
       transform="translate(17.372519,39.211201)"
       width="100%"
       height="100%" />
    <use
       x="0"
       y="0"
       xlink:href="#text6886-9"
       id="use8352"
       transform="translate(17.372519,38.740381)"
       width="100%"
       height="100%" />
    <use
       x="0"
       y="0"
       xlink:href="#path3717-6-5"
       id="use8338-2"
       transform="translate(33.208239,38.436698)"
       width="100%"
       height="100%"
       style="fill:#28170b;fill-rule:nonzero;opacity:1;stroke:#000000;stroke-opacity:1" />
    <path
       style="opacity:1;fill:#28170b;fill-opacity:1;fill-rule:nonzero;stroke:#000000;stroke-width:0.25253814;stroke-opacity:1"
       d="m 467.38844,356.59284 c -13.89785,-3.11792 -21.34438,-17.54925 -15.52871,-30.09452 2.20543,-4.75744 5.5794,-8.22317 10.24991,-10.52868 11.05215,-5.45569 24.55346,-0.89853 29.80814,10.06128 1.52173,3.1739 1.90345,4.77839 2.04422,8.59238 0.10146,2.74892 0.0351,3.64458 -0.40823,5.50567 -1.94125,8.1504 -8.20534,14.35097 -16.50914,16.34174 -2.47192,0.59263 -7.2875,0.65353 -9.65619,0.12213 z"
       id="path9285"
       inkscape:connector-curvature="0"
       transform="scale(0.26458333)" />
  </g>
</svg>
